Khula-Light.ufo
<glyph name="quotedbl.deva" format="1">
  <advance width="971"/>
  <unicode hex="0022"/>
  <outline>
    <contour>
      <point x="394" y="1316" type="line"/>
      <point x="364" y="841" type="line"/>
      <point x="309" y="841" type="line"/>
      <point x="280" y="1316" type="line"/>
    </contour>
    <contour>
      <point x="691" y="1316" type="line"/>
      <point x="661" y="841" type="line"/>
      <point x="606" y="841" type="line"/>
      <point x="577" y="1316" type="line"/>
    </contour>
  </outline>
</glyph>
<glyph name="numbersign.deva" format="1">
  <advance width="1432"/>
  <unicode hex="0023"/>
  <outline>
    <contour>
      <point x="991" y="835" type="line"/>
      <point x="923" y="477" type="line"/>
      <point x="1196" y="477" type="line"/>
      <point x="1196" y="406" type="line"/>
      <point x="908" y="406" type="line"/>
      <point x="830" y="0" type="line"/>
      <point x="749" y="0" type="line"/>
      <point x="828" y="406" type="line"/>
      <point x="504" y="406" type="line"/>
      <point x="427" y="0" type="line"/>
      <point x="348" y="0" type="line"/>
      <point x="425" y="406" type="line"/>
      <point x="170" y="406" type="line"/>
      <point x="170" y="477" type="line"/>
      <point x="440" y="477" type="line"/>
      <point x="508" y="835" type="line"/>
      <point x="241" y="835" type="line"/>
      <point x="241" y="907" type="line"/>
      <point x="521" y="907" type="line"/>
      <point x="598" y="1316" type="line"/>
      <point x="680" y="1316" type="line"/>
      <point x="600" y="907" type="line"/>
      <point x="928" y="907" type="line"/>
      <point x="1007" y="1316" type="line"/>
      <point x="1085" y="1316" type="line"/>
      <point x="1006" y="907" type="line"/>
      <point x="1262" y="907" type="line"/>
      <point x="1262" y="835" type="line"/>
    </contour>
    <contour>
      <point x="517" y="477" type="line"/>
      <point x="844" y="477" type="line"/>
      <point x="914" y="835" type="line"/>
      <point x="587" y="835" type="line"/>
    </contour>
  </outline>
</glyph>
<glyph name="quotesingle.deva" format="1">
  <advance width="674"/>
  <unicode hex="0027"/>
  <outline>
    <contour>
      <point x="394" y="1316" type="line"/>
      <point x="364" y="841" type="line"/>
      <point x="309" y="841" type="line"/>
      <point x="280" y="1316" type="line"/>
    </contour>
  </outline>
</glyph>
<glyph name="parenleft.deva" format="1">
  <advance width="681"/>
  <unicode hex="0028"/>
  <outline>
    <contour>
      <point x="114" y="605" type="curve" smooth="yes"/>
      <point x="114" y="922"/>
      <point x="209" y="1207"/>
      <point x="385" y="1416" type="curve"/>
      <point x="486" y="1416" type="line"/>
      <point x="309" y="1197"/>
      <point x="211" y="914"/>
      <point x="211" y="607" type="curve" smooth="yes"/>
      <point x="211" y="317"/>
      <point x="302" y="51"/>
      <point x="485" y="-192" type="curve"/>
      <point x="385" y="-192" type="line"/>
      <point x="208" y="12"/>
      <point x="114" y="292"/>
    </contour>
  </outline>
</glyph>
<glyph name="parenright.deva" format="1">
  <advance width="681"/>
  <unicode hex="0029"/>
  <outline>
    <contour>
      <point x="567" y="605" type="curve" smooth="yes"/>
      <point x="567" y="289"/>
      <point x="472" y="11"/>
      <point x="297" y="-192" type="curve"/>
      <point x="197" y="-192" type="line"/>
      <point x="379" y="51"/>
      <point x="470" y="317"/>
      <point x="470" y="607" type="curve" smooth="yes"/>
      <point x="470" y="915"/>
      <point x="372" y="1199"/>
      <point x="195" y="1416" type="curve"/>
      <point x="297" y="1416" type="line"/>
      <point x="473" y="1205"/>
      <point x="567" y="921"/>
    </contour>
  </outline>
</glyph>
<glyph name="asterisk.deva" format="1">
  <advance width="1234"/>
  <unicode hex="002A"/>
  <outline>
    <contour>
      <point x="679" y="1400" type="line"/>
      <point x="646" y="1036" type="line"/>
      <point x="1010" y="1129" type="line"/>
      <point x="1029" y="1012" type="line"/>
      <point x="673" y="976" type="line"/>
      <point x="896" y="670" type="line"/>
      <point x="784" y="607" type="line"/>
      <point x="612" y="948" type="line"/>
      <point x="450" y="607" type="line"/>
      <point x="338" y="670" type="line"/>
      <point x="556" y="976" type="line"/>
      <point x="205" y="1012" type="line"/>
      <point x="222" y="1129" type="line"/>
      <point x="583" y="1036" type="line"/>
      <point x="547" y="1400" type="line"/>
    </contour>
  </outline>
</glyph>
<glyph name="hyphen.deva" format="1">
  <advance width="793"/>
  <unicode hex="002D"/>
  <outline>
    <contour>
      <point x="183" y="511" type="line"/>
      <point x="183" y="585" type="line"/>
      <point x="610" y="585" type="line"/>
      <point x="610" y="511" type="line"/>
    </contour>
  </outline>
</glyph>
<glyph name="period.deva" format="1">
  <advance width="518"/>
  <unicode hex="002E"/>
  <outline>
    <contour>
      <point x="186" y="70" type="curve" smooth="yes"/>
      <point x="186" y="129"/>
      <point x="210" y="158"/>
      <point x="258" y="158" type="curve" smooth="yes"/>
      <point x="307" y="158"/>
      <point x="332" y="129"/>
      <point x="332" y="70" type="curve" smooth="yes"/>
      <point x="332" y="11"/>
      <point x="307" y="-18"/>
      <point x="258" y="-18" type="curve" smooth="yes"/>
      <point x="210" y="-18"/>
      <point x="186" y="11"/>
    </contour>
  </outline>
</glyph>
<glyph name="slash.deva" format="1">
  <advance width="740"/>
  <unicode hex="002F"/>
  <outline>
    <contour>
      <point x="629" y="1316" type="line"/>
      <point x="138" y="0" type="line"/>
      <point x="44" y="0" type="line"/>
      <point x="534" y="1316" type="line"/>
    </contour>
  </outline>
</glyph>
<glyph name="colon.deva" format="1">
  <advance width="538"/>
  <unicode hex="003A"/>
  <outline>
    <contour>
      <point x="206" y="70" type="curve" smooth="yes"/>
      <point x="206" y="129"/>
      <point x="230" y="158"/>
      <point x="278" y="158" type="curve" smooth="yes"/>
      <point x="327" y="158"/>
      <point x="352" y="129"/>
      <point x="352" y="70" type="curve" smooth="yes"/>
      <point x="352" y="11"/>
      <point x="327" y="-18"/>
      <point x="278" y="-18" type="curve" smooth="yes"/>
      <point x="230" y="-18"/>
      <point x="206" y="11"/>
    </contour>
    <contour>
      <point x="206" y="874" type="curve" smooth="yes"/>
      <point x="206" y="933"/>
      <point x="230" y="962"/>
      <point x="278" y="962" type="curve" smooth="yes"/>
      <point x="327" y="962"/>
      <point x="352" y="933"/>
      <point x="352" y="874" type="curve" smooth="yes"/>
      <point x="352" y="810"/>
      <point x="319" y="785"/>
      <point x="278" y="785" type="curve" smooth="yes"/>
      <point x="237" y="785"/>
      <point x="206" y="810"/>
    </contour>
  </outline>
</glyph>
<glyph name="semicolon.deva" format="1">
  <advance width="538"/>
  <unicode hex="003B"/>
  <outline>
    <contour>
      <point x="333" y="214" type="line"/>
      <point x="343" y="195" type="line"/>
      <point x="298" y="36"/>
      <point x="246" y="-108"/>
      <point x="187" y="-238" type="curve"/>
      <point x="128" y="-238" type="line"/>
      <point x="145" y="-179"/>
      <point x="164" y="-105"/>
      <point x="184" y="-16" type="curve" smooth="yes"/>
      <point x="204" y="73"/>
      <point x="218" y="149"/>
      <point x="227" y="214" type="curve"/>
    </contour>
    <contour>
      <point x="206" y="874" type="curve" smooth="yes"/>
      <point x="206" y="933"/>
      <point x="230" y="962"/>
      <point x="278" y="962" type="curve" smooth="yes"/>
      <point x="327" y="962"/>
      <point x="352" y="933"/>
      <point x="352" y="874" type="curve" smooth="yes"/>
      <point x="352" y="810"/>
      <point x="319" y="785"/>
      <point x="278" y="785" type="curve" smooth="yes"/>
      <point x="237" y="785"/>
      <point x="206" y="810"/>
    </contour>
  </outline>
</glyph>
<glyph name="question.deva" format="1">
  <advance width="1238"/>
  <unicode hex="003F"/>
  <outline>
    <contour>
      <point x="513" y="339" type="line"/>
      <point x="513" y="373" type="line" smooth="yes"/>
      <point x="513" y="446"/>
      <point x="524" y="506"/>
      <point x="546" y="553" type="curve" smooth="yes"/>
      <point x="569" y="600"/>
      <point x="610" y="651"/>
      <point x="671" y="704" type="curve" smooth="yes"/>
      <point x="753" y="775" type="line"/>
      <point x="840" y="848"/>
      <point x="874" y="915"/>
      <point x="874" y="1008" type="curve" smooth="yes"/>
      <point x="874" y="1084"/>
      <point x="849" y="1144"/>
      <point x="798" y="1189" type="curve" smooth="yes"/>
      <point x="748" y="1234"/>
      <point x="682" y="1257"/>
      <point x="601" y="1257" type="curve" smooth="yes"/>
      <point x="506" y="1257"/>
      <point x="430" y="1238"/>
      <point x="334" y="1191" type="curve"/>
      <point x="300" y="1263" type="line"/>
      <point x="366" y="1292"/>
      <point x="421" y="1311"/>
      <point x="466" y="1320" type="curve" smooth="yes"/>
      <point x="511" y="1330"/>
      <point x="557" y="1335"/>
      <point x="604" y="1335" type="curve" smooth="yes"/>
      <point x="714" y="1335"/>
      <point x="800" y="1305"/>
      <point x="863" y="1246" type="curve" smooth="yes"/>
      <point x="926" y="1187"/>
      <point x="958" y="1106"/>
      <point x="958" y="1003" type="curve" smooth="yes"/>
      <point x="958" y="839"/>
      <point x="868" y="769"/>
      <point x="734" y="656" type="curve" smooth="yes"/>
      <point x="695" y="623"/>
      <point x="666" y="594"/>
      <point x="645" y="567" type="curve" smooth="yes"/>
      <point x="624" y="540"/>
      <point x="609" y="512"/>
      <point x="600" y="483" type="curve" smooth="yes"/>
      <point x="591" y="454"/>
      <point x="586" y="410"/>
      <point x="586" y="352" type="curve" smooth="yes"/>
      <point x="586" y="339" type="line"/>
    </contour>
    <contour>
      <point x="483" y="70" type="curve" smooth="yes"/>
      <point x="483" y="129"/>
      <point x="507" y="158"/>
      <point x="555" y="158" type="curve" smooth="yes"/>
      <point x="604" y="158"/>
      <point x="629" y="129"/>
      <point x="629" y="70" type="curve" smooth="yes"/>
      <point x="629" y="11"/>
      <point x="604" y="-18"/>
      <point x="555" y="-18" type="curve" smooth="yes"/>
      <point x="507" y="-18"/>
      <point x="483" y="11"/>
    </contour>
  </outline>
</glyph>
<glyph name="F" format="1">
  <advance width="925"/>
  <unicode hex="0046"/>
  <outline>
    <contour>
      <point x="278" y="0" type="line"/>
      <point x="186" y="0" type="line"/>
      <point x="186" y="1316" type="line"/>
      <point x="907" y="1316" type="line"/>
      <point x="907" y="1231" type="line"/>
      <point x="278" y="1231" type="line"/>
      <point x="278" y="673" type="line"/>
      <point x="872" y="673" type="line"/>
      <point x="872" y="588" type="line"/>
      <point x="278" y="588" type="line"/>
    </contour>
  </outline>
</glyph>
<glyph name="X" format="1">
  <advance width="992"/>
  <unicode hex="0058"/>
  <outline>
    <contour>
      <point x="992" y="0" type="line"/>
      <point x="886" y="0" type="line"/>
      <point x="498" y="614" type="line"/>
      <point x="102" y="0" type="line"/>
      <point x="0" y="0" type="line"/>
      <point x="443" y="686" type="line"/>
      <point x="40" y="1316" type="line"/>
      <point x="144" y="1316" type="line"/>
      <point x="499" y="752" type="line"/>
      <point x="860" y="1316" type="line"/>
      <point x="958" y="1316" type="line"/>
      <point x="551" y="688" type="line"/>
    </contour>
  </outline>
</glyph>
<glyph name="bracketleft.deva" format="1">
  <advance width="788"/>
  <unicode hex="005B"/>
  <outline>
    <contour>
      <point x="642" y="-192" type="line"/>
      <point x="257" y="-192" type="line"/>
      <point x="257" y="1416" type="line"/>
      <point x="642" y="1416" type="line"/>
      <point x="642" y="1331" type="line"/>
      <point x="345" y="1331" type="line"/>
      <point x="345" y="-106" type="line"/>
      <point x="642" y="-106" type="line"/>
    </contour>
  </outline>
</glyph>
<glyph name="bracketright.deva" format="1">
  <advance width="788"/>
  <unicode hex="005D"/>
  <outline>
    <contour>
      <point x="146" y="-106" type="line"/>
      <point x="443" y="-106" type="line"/>
      <point x="443" y="1331" type="line"/>
      <point x="146" y="1331" type="line"/>
      <point x="146" y="1416" type="line"/>
      <point x="531" y="1416" type="line"/>
      <point x="531" y="-192" type="line"/>
      <point x="146" y="-192" type="line"/>
    </contour>
  </outline>
</glyph>
<glyph name="asciicircum.deva" format="1">
  <advance width="1052"/>
  <unicode hex="005E"/>
  <outline>
    <contour>
      <point x="79" y="505" type="line"/>
      <point x="498" y="1326" type="line"/>
      <point x="559" y="1326" type="line"/>
      <point x="973" y="505" type="line"/>
      <point x="883" y="505" type="line"/>
      <point x="527" y="1217" type="line"/>
      <point x="169" y="505" type="line"/>
    </contour>
  </outline>
</glyph>
<glyph name="i" format="1">
  <advance width="417"/>
  <unicode hex="0069"/>
  <outline>
    <contour>
      <point x="253" y="0" type="line"/>
      <point x="164" y="0" type="line"/>
      <point x="164" y="978" type="line"/>
      <point x="253" y="978" type="line"/>
    </contour>
    <contour>
      <point x="151" y="1250" type="curve" smooth="yes"/>
      <point x="151" y="1307"/>
      <point x="170" y="1336"/>
      <point x="208" y="1336" type="curve" smooth="yes"/>
      <point x="245" y="1336"/>
      <point x="267" y="1305"/>
      <point x="267" y="1250" type="curve" smooth="yes"/>
      <point x="267" y="1197"/>
      <point x="245" y="1163"/>
      <point x="208" y="1163" type="curve" smooth="yes"/>
      <point x="170" y="1163"/>
      <point x="151" y="1192"/>
    </contour>
  </outline>
</glyph>
<glyph name="k" format="1">
  <advance width="892"/>
  <unicode hex="006B"/>
  <outline>
    <contour>
      <point x="251" y="429" type="line"/>
      <point x="751" y="978" type="line"/>
      <point x="859" y="978" type="line"/>
      <point x="473" y="561" type="line"/>
      <point x="892" y="0" type="line"/>
      <point x="785" y="0" type="line"/>
      <point x="413" y="494" type="line"/>
      <point x="253" y="348" type="line"/>
      <point x="253" y="0" type="line"/>
      <point x="164" y="0" type="line"/>
      <point x="164" y="1400" type="line"/>
      <point x="253" y="1400" type="line"/>
      <point x="253" y="698" type="line"/>
      <point x="247" y="429" type="line"/>
    </contour>
  </outline>
</glyph>
<glyph name="r" format="1">
  <advance width="717"/>
  <unicode hex="0072"/>
  <outline>
    <contour>
      <point x="549" y="997" type="curve" smooth="yes"/>
      <point x="590" y="997"/>
      <point x="635" y="993"/>
      <point x="682" y="985" type="curve"/>
      <point x="665" y="899" type="line"/>
      <point x="624" y="909"/>
      <point x="582" y="914"/>
      <point x="538" y="914" type="curve" smooth="yes"/>
      <point x="455" y="914"/>
      <point x="386" y="879"/>
      <point x="333" y="808" type="curve" smooth="yes"/>
      <point x="280" y="737"/>
      <point x="253" y="648"/>
      <point x="253" y="540" type="curve" smooth="yes"/>
      <point x="253" y="0" type="line"/>
      <point x="164" y="0" type="line"/>
      <point x="164" y="978" type="line"/>
      <point x="239" y="978" type="line"/>
      <point x="248" y="802" type="line"/>
      <point x="255" y="802" type="line"/>
      <point x="295" y="874"/>
      <point x="338" y="924"/>
      <point x="383" y="953" type="curve" smooth="yes"/>
      <point x="429" y="982"/>
      <point x="484" y="997"/>
    </contour>
  </outline>
</glyph>
<glyph name="braceleft.deva" format="1">
  <advance width="851"/>
  <unicode hex="007B"/>
  <outline>
    <contour>
      <point x="450" y="76" type="line" smooth="yes"/>
      <point x="450" y="-47"/>
      <point x="514" y="-106"/>
      <point x="686" y="-110" type="curve"/>
      <point x="686" y="-192" type="line"/>
      <point x="569" y="-192"/>
      <point x="485" y="-169"/>
      <point x="436" y="-124" type="curve" smooth="yes"/>
      <point x="387" y="-79"/>
      <point x="362" y="-10"/>
      <point x="362" y="84" type="curve" smooth="yes"/>
      <point x="362" y="387" type="line" smooth="yes"/>
      <point x="362" y="510"/>
      <point x="293" y="573"/>
      <point x="155" y="575" type="curve"/>
      <point x="155" y="647" type="line"/>
      <point x="302" y="650"/>
      <point x="362" y="707"/>
      <point x="362" y="826" type="curve" smooth="yes"/>
      <point x="362" y="1141" type="line" smooth="yes"/>
      <point x="362" y="1320"/>
      <point x="470" y="1412"/>
      <point x="686" y="1416" type="curve"/>
      <point x="686" y="1335" type="line"/>
      <point x="521" y="1328"/>
      <point x="450" y="1266"/>
      <point x="450" y="1141" type="curve" smooth="yes"/>
      <point x="450" y="867" type="line" smooth="yes"/>
      <point x="450" y="711"/>
      <point x="400" y="641"/>
      <point x="283" y="616" type="curve"/>
      <point x="283" y="608" type="line"/>
      <point x="399" y="584"/>
      <point x="450" y="513"/>
      <point x="450" y="365" type="curve" smooth="yes"/>
    </contour>
  </outline>
</glyph>
<glyph name="bar.deva" format="1">
  <advance width="997"/>
  <unicode hex="007C"/>
  <outline>
    <contour>
      <point x="457" y="1505" type="line"/>
      <point x="540" y="1505" type="line"/>
      <point x="540" y="-355" type="line"/>
      <point x="457" y="-355" type="line"/>
    </contour>
  </outline>
</glyph>
<glyph name="uni02BC" format="1">
  <advance width="638"/>
  <unicode hex="02BC"/>
  <outline>
    <contour>
      <point x="449" y="1487" type="line"/>
      <point x="285" y="1041" type="line"/>
      <point x="211" y="1041" type="line"/>
      <point x="304" y="1504" type="line"/>
      <point x="445" y="1504" type="line"/>
    </contour>
  </outline>
</glyph>
<glyph name="visargadeva" format="1">
  <advance width="268"/>
  <unicode hex="0903"/>
  <outline>
    <contour>
      <point x="298" y="1198" type="line"/>
      <point x="-30" y="1198" type="line"/>
      <point x="-30" y="1274" type="line"/>
      <point x="298" y="1274" type="line"/>
    </contour>
    <component base="anusvaradeva" xOffset="397" yOffset="-1270"/>
    <component base="anusvaradeva" xOffset="400" yOffset="-748"/>
  </outline>
</glyph>
<glyph name="adeva" format="1">
  <advance width="1517"/>
  <unicode hex="0905"/>
  <outline>
    <contour>
      <point x="328" y="725" type="line"/>
      <point x="311" y="799" type="line"/>
      <point x="316" y="799" type="line" smooth="yes"/>
      <point x="586" y="799"/>
      <point x="712" y="907"/>
      <point x="712" y="1020" type="curve" smooth="yes"/>
      <point x="712" y="1121"/>
      <point x="631" y="1203"/>
      <point x="493" y="1203" type="curve" smooth="yes"/>
      <point x="395" y="1203"/>
      <point x="298" y="1168"/>
      <point x="224" y="1117" type="curve"/>
      <point x="191" y="1191" type="line"/>
      <point x="268" y="1242"/>
      <point x="375" y="1281"/>
      <point x="487" y="1281" type="curve" smooth="yes"/>
      <point x="683" y="1281"/>
      <point x="792" y="1173"/>
      <point x="792" y="1017" type="curve" smooth="yes"/>
      <point x="792" y="863"/>
      <point x="637" y="725"/>
      <point x="334" y="725" type="curve" smooth="yes"/>
    </contour>
    <contour>
      <point x="583" y="835" type="line"/>
      <point x="749" y="747"/>
      <point x="829" y="654"/>
      <point x="829" y="499" type="curve" smooth="yes"/>
      <point x="829" y="335"/>
      <point x="705" y="205"/>
      <point x="512" y="205" type="curve" smooth="yes"/>
      <point x="363" y="205"/>
      <point x="243" y="265"/>
      <point x="123" y="361" type="curve"/>
      <point x="151" y="436" type="line"/>
      <point x="272" y="335"/>
      <point x="378" y="285"/>
      <point x="503" y="285" type="curve" smooth="yes"/>
      <point x="664" y="285"/>
      <point x="748" y="385"/>
      <point x="748" y="511" type="curve" smooth="yes"/>
      <point x="748" y="626"/>
      <point x="672" y="716"/>
      <point x="523" y="780" type="curve"/>
    </contour>
    <contour>
      <point x="1178" y="1226" type="line"/>
      <point x="1267" y="1226" type="line"/>
      <point x="1267" y="0" type="line"/>
      <point x="1178" y="0" type="line"/>
    </contour>
    <contour>
      <point x="1547" y="1198" type="line"/>
      <point x="940" y="1198" type="line"/>
      <point x="940" y="1274" type="line"/>
      <point x="1547" y="1274" type="line"/>
    </contour>
    <contour>
      <point x="765" y="645" type="line"/>
      <point x="826" y="625"/>
      <point x="880" y="620"/>
      <point x="960" y="620" type="curve" smooth="yes"/>
      <point x="1043" y="620"/>
      <point x="1128" y="639"/>
      <point x="1190" y="679" type="curve"/>
      <point x="1190" y="588" type="line"/>
      <point x="1144" y="562"/>
      <point x="1061" y="541"/>
      <point x="962" y="541" type="curve" smooth="yes"/>
      <point x="888" y="541"/>
      <point x="820" y="551"/>
      <point x="765" y="564" type="curve"/>
    </contour>
  </outline>
</glyph>
<glyph name="aadeva" format="1">
  <advance width="2063"/>
  <unicode hex="0906"/>
  <outline>
    <contour>
      <point x="583" y="835" type="line"/>
      <point x="749" y="747"/>
      <point x="829" y="654"/>
      <point x="829" y="499" type="curve" smooth="yes"/>
      <point x="829" y="335"/>
      <point x="705" y="205"/>
      <point x="512" y="205" type="curve" smooth="yes"/>
      <point x="363" y="205"/>
      <point x="243" y="265"/>
      <point x="123" y="361" type="curve"/>
      <point x="151" y="436" type="line"/>
      <point x="272" y="335"/>
      <point x="378" y="285"/>
      <point x="503" y="285" type="curve" smooth="yes"/>
      <point x="664" y="285"/>
      <point x="748" y="385"/>
      <point x="748" y="511" type="curve" smooth="yes"/>
      <point x="748" y="626"/>
      <point x="672" y="716"/>
      <point x="523" y="780" type="curve"/>
    </contour>
    <contour>
      <point x="792" y="1017" type="curve" smooth="yes"/>
      <point x="792" y="863"/>
      <point x="637" y="725"/>
      <point x="334" y="725" type="curve" smooth="yes"/>
      <point x="328" y="725" type="line"/>
      <point x="311" y="799" type="line"/>
      <point x="316" y="799" type="line" smooth="yes"/>
      <point x="586" y="799"/>
      <point x="712" y="907"/>
      <point x="712" y="1020" type="curve" smooth="yes"/>
      <point x="712" y="1121"/>
      <point x="631" y="1203"/>
      <point x="493" y="1203" type="curve" smooth="yes"/>
      <point x="395" y="1203"/>
      <point x="298" y="1168"/>
      <point x="224" y="1117" type="curve"/>
      <point x="191" y="1191" type="line"/>
      <point x="268" y="1242"/>
      <point x="375" y="1281"/>
      <point x="487" y="1281" type="curve" smooth="yes"/>
      <point x="683" y="1281"/>
      <point x="792" y="1173"/>
    </contour>
    <contour>
      <point x="765" y="645" type="line"/>
      <point x="826" y="625"/>
      <point x="880" y="620"/>
      <point x="960" y="620" type="curve" smooth="yes"/>
      <point x="1043" y="620"/>
      <point x="1128" y="639"/>
      <point x="1190" y="679" type="curve"/>
      <point x="1190" y="588" type="line"/>
      <point x="1144" y="562"/>
      <point x="1061" y="541"/>
      <point x="962" y="541" type="curve" smooth="yes"/>
      <point x="888" y="541"/>
      <point x="820" y="551"/>
      <point x="765" y="564" type="curve"/>
    </contour>
    <contour>
      <point x="1727" y="1226" type="line"/>
      <point x="1816" y="1226" type="line"/>
      <point x="1816" y="0" type="line"/>
      <point x="1727" y="0" type="line"/>
    </contour>
    <contour>
      <point x="1178" y="1226" type="line"/>
      <point x="1267" y="1226" type="line"/>
      <point x="1267" y="0" type="line"/>
      <point x="1178" y="0" type="line"/>
    </contour>
    <contour>
      <point x="2093" y="1198" type="line"/>
      <point x="940" y="1198" type="line"/>
      <point x="940" y="1274" type="line"/>
      <point x="2093" y="1274" type="line"/>
    </contour>
  </outline>
</glyph>
<glyph name="ideva" format="1">
  <advance width="966"/>
  <unicode hex="0907"/>
  <outline>
    <contour>
      <point x="478" y="123" type="line"/>
      <point x="714" y="-133" type="line"/>
      <point x="659" y="-187" type="line"/>
      <point x="369" y="133" type="line"/>
      <point x="425" y="91" type="line"/>
      <point x="249" y="91"/>
      <point x="155" y="133"/>
      <point x="155" y="199" type="curve" smooth="yes"/>
      <point x="155" y="252"/>
      <point x="198" y="294"/>
      <point x="256" y="294" type="curve" smooth="yes"/>
      <point x="309" y="294"/>
      <point x="369" y="258"/>
      <point x="469" y="143" type="curve"/>
    </contour>
    <contour>
      <point x="682" y="1238" type="line"/>
      <point x="771" y="1238" type="line"/>
      <point x="771" y="875" type="line"/>
      <point x="405" y="875" type="line" smooth="yes"/>
      <point x="260" y="875"/>
      <point x="205" y="816"/>
      <point x="205" y="731" type="curve" smooth="yes"/>
      <point x="205" y="662"/>
      <point x="262" y="594"/>
      <point x="363" y="557" type="curve"/>
      <point x="302" y="557" type="line"/>
      <point x="391" y="599"/>
      <point x="479" y="623"/>
      <point x="573" y="623" type="curve" smooth="yes"/>
      <point x="743" y="623"/>
      <point x="854" y="527"/>
      <point x="854" y="386" type="curve" smooth="yes"/>
      <point x="854" y="222"/>
      <point x="694" y="93"/>
      <point x="415" y="93" type="curve"/>
      <point x="391" y="167" type="line"/>
      <point x="648" y="167"/>
      <point x="775" y="270"/>
      <point x="775" y="386" type="curve" smooth="yes"/>
      <point x="775" y="478"/>
      <point x="706" y="544"/>
      <point x="567" y="544" type="curve" smooth="yes"/>
      <point x="490" y="544"/>
      <point x="416" y="522"/>
      <point x="341" y="481" type="curve"/>
      <point x="336" y="481" type="line"/>
      <point x="190" y="549"/>
      <point x="126" y="641"/>
      <point x="126" y="747" type="curve" smooth="yes"/>
      <point x="126" y="860"/>
      <point x="211" y="951"/>
      <point x="407" y="951" type="curve" smooth="yes"/>
      <point x="721" y="951" type="line"/>
      <point x="682" y="912" type="line"/>
    </contour>
    <contour>
      <point x="996" y="1198" type="line"/>
      <point x="-30" y="1198" type="line"/>
      <point x="-30" y="1274" type="line"/>
      <point x="996" y="1274" type="line"/>
    </contour>
    <contour>
      <point x="75" y="8" type="move" name="x51"/>
    </contour>
  </outline>
</glyph>
<glyph name="udeva" format="1">
  <advance width="1047"/>
  <unicode hex="0909"/>
  <outline>
    <contour>
      <point x="313" y="668" type="line"/>
      <point x="294" y="742" type="line"/>
      <point x="299" y="742" type="line" smooth="yes"/>
      <point x="605" y="742"/>
      <point x="737" y="865"/>
      <point x="737" y="989" type="curve" smooth="yes"/>
      <point x="737" y="1077"/>
      <point x="696" y="1157"/>
      <point x="596" y="1220" type="curve"/>
      <point x="652" y="1268" type="line"/>
      <point x="767" y="1192"/>
      <point x="815" y="1104"/>
      <point x="815" y="986" type="curve" smooth="yes"/>
      <point x="815" y="818"/>
      <point x="656" y="668"/>
      <point x="317" y="668" type="curve" smooth="yes"/>
    </contour>
    <contour>
      <point x="-30" y="1198" type="curve"/>
      <point x="-30" y="1274" type="line"/>
      <point x="1077" y="1274" type="line"/>
      <point x="1077" y="1198" type="line"/>
      <point x="1077" y="1198"/>
      <point x="-30" y="1198"/>
    </contour>
    <contour>
      <point x="617" y="780" type="line"/>
      <point x="813" y="677"/>
      <point x="902" y="544"/>
      <point x="902" y="389" type="curve" smooth="yes"/>
      <point x="902" y="202"/>
      <point x="752" y="64"/>
      <point x="548" y="64" type="curve" smooth="yes"/>
      <point x="395" y="64"/>
      <point x="264" y="116"/>
      <point x="104" y="230" type="curve"/>
      <point x="133" y="304" type="line"/>
      <point x="271" y="201"/>
      <point x="396" y="144"/>
      <point x="531" y="144" type="curve" smooth="yes"/>
      <point x="708" y="144"/>
      <point x="822" y="256"/>
      <point x="822" y="398" type="curve" smooth="yes"/>
      <point x="822" y="523"/>
      <point x="722" y="656"/>
      <point x="557" y="720" type="curve"/>
    </contour>
    <contour>
      <point x="631" y="1274" type="move" name="top"/>
    </contour>
  </outline>
</glyph>
<glyph name="ngadeva" format="1">
  <advance width="1135"/>
  <unicode hex="0919"/>
  <outline>
    <contour>
      <point x="1054" y="1198" type="line"/>
      <point x="1054" y="1274" type="line"/>
      <point x="1165" y="1274" type="line"/>
      <point x="1165" y="1198" type="line"/>
    </contour>
    <contour>
      <point x="1030" y="800" type="curve" smooth="yes"/>
      <point x="1079" y="800"/>
      <point x="1104" y="771"/>
      <point x="1104" y="712" type="curve" smooth="yes"/>
      <point x="1104" y="654"/>
      <point x="1079" y="624"/>
      <point x="1030" y="624" type="curve" smooth="yes"/>
      <point x="982" y="624"/>
      <point x="958" y="654"/>
      <point x="958" y="712" type="curve" smooth="yes"/>
      <point x="958" y="771"/>
      <point x="982" y="800"/>
    </contour>
    <component base="ddadeva"/>
    <contour>
      <point x="782" y="1274" type="move" name="top"/>
    </contour>
    <contour>
      <point x="536" y="75" type="move" name="btm"/>
    </contour>
  </outline>
</glyph>
<glyph name="chadeva" format="1">
  <advance width="1411"/>
  <unicode hex="091B"/>
  <outline>
    <contour>
      <point x="622" y="764" type="curve"/>
      <point x="644" y="690" type="line"/>
      <point x="642" y="690"/>
      <point x="639" y="690"/>
      <point x="637" y="690" type="curve" smooth="yes"/>
      <point x="377" y="690"/>
      <point x="302" y="562"/>
      <point x="302" y="439" type="curve" smooth="yes"/>
      <point x="302" y="299"/>
      <point x="427" y="184"/>
      <point x="640" y="184" type="curve" smooth="yes"/>
      <point x="941" y="184"/>
      <point x="1212" y="432"/>
      <point x="1212" y="684" type="curve" smooth="yes"/>
      <point x="1212" y="814"/>
      <point x="1138" y="895"/>
      <point x="1046" y="895" type="curve" smooth="yes"/>
      <point x="960" y="895"/>
      <point x="887" y="844"/>
      <point x="887" y="739" type="curve" smooth="yes"/>
      <point x="887" y="634"/>
      <point x="970" y="515"/>
      <point x="1164" y="406" type="curve"/>
      <point x="1122" y="342" type="line"/>
      <point x="918" y="456"/>
      <point x="807" y="604"/>
      <point x="807" y="753" type="curve" smooth="yes"/>
      <point x="807" y="887"/>
      <point x="915" y="974"/>
      <point x="1041" y="974" type="curve" smooth="yes"/>
      <point x="1173" y="974"/>
      <point x="1290" y="872"/>
      <point x="1290" y="678" type="curve" smooth="yes"/>
      <point x="1290" y="398"/>
      <point x="983" y="101"/>
      <point x="656" y="101" type="curve" smooth="yes"/>
      <point x="360" y="101"/>
      <point x="217" y="265"/>
      <point x="217" y="453" type="curve" smooth="yes"/>
      <point x="217" y="613"/>
      <point x="330" y="764"/>
      <point x="617" y="764" type="curve" smooth="yes"/>
      <point x="619" y="764"/>
      <point x="620" y="764"/>
    </contour>
    <contour>
      <point x="491" y="730" type="curve"/>
      <point x="408" y="667" type="line"/>
      <point x="223" y="727"/>
      <point x="139" y="839"/>
      <point x="139" y="978" type="curve" smooth="yes"/>
      <point x="139" y="1095"/>
      <point x="218" y="1223"/>
      <point x="400" y="1266" type="curve"/>
      <point x="487" y="1219" type="line"/>
      <point x="292" y="1186"/>
      <point x="224" y="1055"/>
      <point x="224" y="965" type="curve" smooth="yes"/>
      <point x="224" y="858"/>
      <point x="307" y="760"/>
    </contour>
    <contour>
      <point x="1441" y="1198" type="line"/>
      <point x="-30" y="1198" type="line"/>
      <point x="-30" y="1274" type="line"/>
      <point x="1441" y="1274" type="line"/>
    </contour>
    <contour>
      <point x="1072" y="1244" type="line"/>
      <point x="1161" y="1244" type="line"/>
      <point x="1161" y="941" type="line"/>
      <point x="1072" y="941" type="line"/>
    </contour>
    <contour>
      <point x="612.0" y="99.0" type="move" name="btm"/>
    </contour>
    <contour>
      <point x="991.0" y="1274.0" type="move" name="top"/>
    </contour>
  </outline>
</glyph>
<glyph name="tthadeva" format="1">
  <advance width="1209"/>
  <unicode hex="0920"/>
  <outline>
    <contour>
      <point x="1015" y="505" type="curve" smooth="yes"/>
      <point x="1015" y="614"/>
      <point x="973" y="701"/>
      <point x="868" y="810" type="curve"/>
      <point x="608" y="810" type="line" smooth="yes"/>
      <point x="356" y="810"/>
      <point x="225" y="699"/>
      <point x="225" y="502" type="curve" smooth="yes"/>
      <point x="225" y="319"/>
      <point x="392" y="180"/>
      <point x="616" y="180" type="curve" smooth="yes"/>
      <point x="857" y="180"/>
      <point x="1015" y="315"/>
    </contour>
    <contour>
      <point x="1239" y="1198" type="line"/>
      <point x="-30" y="1198" type="line"/>
      <point x="-30" y="1274" type="line"/>
      <point x="1239" y="1274" type="line"/>
    </contour>
    <contour>
      <point x="863" y="1238" type="line"/>
      <point x="952" y="1238" type="line"/>
      <point x="952" y="786" type="line"/>
      <point x="927" y="866" type="line"/>
      <point x="1036" y="747"/>
      <point x="1093" y="646"/>
      <point x="1093" y="495" type="curve" smooth="yes"/>
      <point x="1093" y="267"/>
      <point x="897" y="100"/>
      <point x="619" y="100" type="curve" smooth="yes"/>
      <point x="351" y="100"/>
      <point x="140" y="281"/>
      <point x="140" y="521" type="curve" smooth="yes"/>
      <point x="140" y="744"/>
      <point x="312" y="886"/>
      <point x="563" y="886" type="curve" smooth="yes"/>
      <point x="902" y="886" type="line"/>
      <point x="863" y="855" type="line"/>
    </contour>
    <contour>
      <point x="562" y="99" type="move" name="btm"/>
    </contour>
    <contour>
      <point x="843" y="1274" type="move" name="top"/>
    </contour>
  </outline>
</glyph>
<glyph name="phadeva" format="1">
  <advance width="1519"/>
  <unicode hex="092B"/>
  <outline>
    <contour>
      <point x="257" y="1240" type="line"/>
      <point x="257" y="794" type="line" smooth="yes"/>
      <point x="257" y="624"/>
      <point x="341" y="549"/>
      <point x="495" y="549" type="curve" smooth="yes"/>
      <point x="593" y="549"/>
      <point x="684" y="575"/>
      <point x="776" y="631" type="curve"/>
      <point x="776" y="532" type="line"/>
      <point x="693" y="492"/>
      <point x="603" y="468"/>
      <point x="515" y="468" type="curve" smooth="yes"/>
      <point x="303" y="468"/>
      <point x="168" y="575"/>
      <point x="168" y="812" type="curve" smooth="yes"/>
      <point x="168" y="1240" type="line"/>
    </contour>
    <contour>
      <point x="-30" y="1198" type="curve"/>
      <point x="-30" y="1274" type="line"/>
      <point x="1549" y="1274" type="line"/>
      <point x="1549" y="1198" type="line"/>
      <point x="1549" y="1198"/>
      <point x="-30" y="1198"/>
    </contour>
    <contour>
      <point x="743" y="1226" type="line"/>
      <point x="832" y="1226" type="line"/>
      <point x="832" y="0" type="line"/>
      <point x="743" y="0" type="line"/>
    </contour>
    <contour>
      <point x="824" y="559" type="curve"/>
      <point x="803" y="646" type="line"/>
      <point x="873" y="702"/>
      <point x="987" y="763"/>
      <point x="1101" y="763" type="curve" smooth="yes"/>
      <point x="1293" y="763"/>
      <point x="1390" y="636"/>
      <point x="1390" y="475" type="curve" smooth="yes"/>
      <point x="1390" y="347"/>
      <point x="1339" y="231"/>
      <point x="1258" y="124" type="curve"/>
      <point x="1184" y="156" type="line"/>
      <point x="1265" y="261"/>
      <point x="1313" y="375"/>
      <point x="1313" y="477" type="curve" smooth="yes"/>
      <point x="1313" y="604"/>
      <point x="1240" y="683"/>
      <point x="1107" y="683" type="curve" smooth="yes"/>
      <point x="1004" y="683"/>
      <point x="900" y="624"/>
    </contour>
    <contour>
      <point x="743.0" y="0.0" type="move" name="btm"/>
    </contour>
    <contour>
      <point x="743.0" y="1274.0" type="move" name="top"/>
    </contour>
  </outline>
</glyph>
<glyph name="avagrahadeva" format="1">
  <advance width="1039"/>
  <unicode hex="093D"/>
  <outline>
    <contour>
      <point x="904" y="423" type="curve" smooth="yes"/>
      <point x="904" y="225"/>
      <point x="749" y="120"/>
      <point x="563" y="120" type="curve" smooth="yes"/>
      <point x="412" y="120"/>
      <point x="290" y="166"/>
      <point x="127" y="284" type="curve"/>
      <point x="158" y="361" type="line"/>
      <point x="302" y="248"/>
      <point x="429" y="203"/>
      <point x="548" y="203" type="curve" smooth="yes"/>
      <point x="719" y="203"/>
      <point x="822" y="293"/>
      <point x="822" y="431" type="curve" smooth="yes"/>
      <point x="822" y="542"/>
      <point x="722" y="646"/>
      <point x="527" y="738" type="curve" smooth="yes"/>
      <point x="327" y="832"/>
      <point x="232" y="932"/>
      <point x="232" y="1062" type="curve" smooth="yes"/>
      <point x="232" y="1174"/>
      <point x="308" y="1274"/>
      <point x="520" y="1274" type="curve" smooth="yes"/>
      <point x="860" y="1274" type="line"/>
      <point x="860" y="1198" type="line"/>
      <point x="535" y="1198" type="line" smooth="yes"/>
      <point x="380" y="1198"/>
      <point x="317" y="1140"/>
      <point x="317" y="1049" type="curve" smooth="yes"/>
      <point x="317" y="966"/>
      <point x="370" y="901"/>
      <point x="592" y="795" type="curve" smooth="yes"/>
      <point x="799" y="696"/>
      <point x="904" y="573"/>
    </contour>
  </outline>
</glyph>
<glyph name="iivowelsigndeva" format="1">
  <advance width="567"/>
  <unicode hex="0940"/>
  <outline>
    <contour>
      <point x="232" y="1239" type="curve"/>
      <point x="141" y="1497"/>
      <point x="-21" y="1660"/>
      <point x="-178" y="1660" type="curve" smooth="yes"/>
      <point x="-290" y="1660"/>
      <point x="-345" y="1581"/>
      <point x="-345" y="1493" type="curve" smooth="yes"/>
      <point x="-345" y="1419"/>
      <point x="-320" y="1344"/>
      <point x="-257" y="1260" type="curve"/>
      <point x="-350" y="1260" type="line"/>
      <point x="-398" y="1344"/>
      <point x="-426" y="1420"/>
      <point x="-426" y="1504" type="curve" smooth="yes"/>
      <point x="-426" y="1630"/>
      <point x="-337" y="1741"/>
      <point x="-188" y="1741" type="curve" smooth="yes"/>
      <point x="14" y="1741"/>
      <point x="199" y="1576"/>
      <point x="321" y="1239" type="curve"/>
      <point x="321" y="1239"/>
      <point x="232" y="1239"/>
    </contour>
    <component base="aavowelsigndeva"/>
  </outline>
</glyph>
<glyph name="ecandravowelsigndeva" format="1">
  <advance width="0"/>
  <unicode hex="0945"/>
  <outline>
    <contour>
      <point x="33" y="1600" type="line"/>
      <point x="-48" y="1494"/>
      <point x="-164" y="1436"/>
      <point x="-293" y="1436" type="curve" smooth="yes"/>
      <point x="-428" y="1436"/>
      <point x="-543" y="1486"/>
      <point x="-643" y="1589" type="curve"/>
      <point x="-612" y="1663" type="line"/>
      <point x="-513" y="1557"/>
      <point x="-403" y="1518"/>
      <point x="-301" y="1518" type="curve" smooth="yes"/>
      <point x="-193" y="1518"/>
      <point x="-93" y="1558"/>
      <point x="-6" y="1662" type="curve"/>
    </contour>
    <contour>
      <point x="-342.0" y="1274.0" type="move" name="_top"/>
    </contour>
  </outline>
</glyph>
<glyph name="evowelsigndeva" format="1">
  <advance width="0"/>
  <unicode hex="0947"/>
  <outline>
    <contour>
      <point x="-338" y="1244" type="line"/>
      <point x="-830" y="1713" type="line"/>
      <point x="-769" y="1773" type="line"/>
      <point x="-222" y="1244" type="line"/>
    </contour>
    <contour>
      <point x="-342.0" y="1274.0" type="move" name="_top"/>
    </contour>
  </outline>
</glyph>
<glyph name="aivowelsigndeva" format="1">
  <advance width="0"/>
  <unicode hex="0948"/>
  <outline>
    <contour>
      <point x="-474" y="1244" type="line"/>
      <point x="-1046" y="1610" type="line"/>
      <point x="-1001" y="1685" type="line"/>
      <point x="-328" y="1244" type="line"/>
    </contour>
    <contour>
      <point x="-341" y="1243" type="line"/>
      <point x="-576" y="1787" type="line"/>
      <point x="-494" y="1818" type="line"/>
      <point x="-247" y="1244" type="line"/>
    </contour>
    <contour>
      <point x="-342" y="1274" type="move" name="_top"/>
    </contour>
  </outline>
</glyph>
<glyph name="candralongevowelsigndeva" format="1">
  <advance width="0"/>
  <unicode hex="0955"/>
  <outline>
    <component base="ecandravowelsigndeva" yScale="0.89" xOffset="-280" yOffset="336"/>
    <component base="anudattadeva" xOffset="-20" yOffset="1641"/>
    <contour>
      <point x="-342" y="1274" type="move" name="_top"/>
    </contour>
  </outline>
</glyph>
<glyph name="lvocalicvowelsigndeva" format="1">
  <advance width="0"/>
  <unicode hex="0962"/>
  <outline>
    <contour>
      <point x="-269" y="-29" type="curve"/>
      <point x="-308" y="-77" type="line"/>
      <point x="-362" y="3"/>
      <point x="-415" y="38"/>
      <point x="-494" y="38" type="curve" smooth="yes"/>
      <point x="-567" y="38"/>
      <point x="-613" y="-14"/>
      <point x="-613" y="-76" type="curve" smooth="yes"/>
      <point x="-613" y="-150"/>
      <point x="-583" y="-209"/>
      <point x="-461" y="-307" type="curve"/>
      <point x="-510" y="-343" type="line"/>
      <point x="-632" y="-243"/>
      <point x="-679" y="-154"/>
      <point x="-679" y="-74" type="curve" smooth="yes"/>
      <point x="-679" y="22"/>
      <point x="-612" y="101"/>
      <point x="-491" y="101" type="curve" smooth="yes"/>
      <point x="-393" y="101"/>
      <point x="-322" y="44"/>
    </contour>
    <contour>
      <point x="-53" y="-233" type="curve"/>
      <point x="-101" y="-263" type="line"/>
      <point x="-50" y="-205"/>
      <point x="-24" y="-160"/>
      <point x="-24" y="-95" type="curve" smooth="yes"/>
      <point x="-24" y="-42"/>
      <point x="-60" y="14"/>
      <point x="-132" y="14" type="curve" smooth="yes"/>
      <point x="-223" y="14"/>
      <point x="-285" y="-60"/>
      <point x="-316" y="-172" type="curve"/>
      <point x="-374" y="-152" type="line"/>
      <point x="-345" y="-28"/>
      <point x="-258" y="77"/>
      <point x="-135" y="77" type="curve" smooth="yes"/>
      <point x="-23" y="77"/>
      <point x="36" y="-5"/>
      <point x="36" y="-101" type="curve" smooth="yes"/>
      <point x="36" y="-166"/>
      <point x="2" y="-234"/>
      <point x="-42" y="-285" type="curve"/>
      <point x="-131" y="-285"/>
      <point x="-166" y="-315"/>
      <point x="-166" y="-356" type="curve" smooth="yes"/>
      <point x="-166" y="-397"/>
      <point x="-135" y="-421"/>
      <point x="-74" y="-421" type="curve" smooth="yes"/>
      <point x="-40" y="-421"/>
      <point x="-14" y="-415"/>
      <point x="30" y="-396" type="curve"/>
      <point x="38" y="-446" type="line"/>
      <point x="0" y="-465"/>
      <point x="-32" y="-471"/>
      <point x="-74" y="-471" type="curve" smooth="yes"/>
      <point x="-162" y="-471"/>
      <point x="-223" y="-422"/>
      <point x="-223" y="-352" type="curve" smooth="yes"/>
      <point x="-223" y="-288"/>
      <point x="-164" y="-233"/>
    </contour>
    <contour>
      <point x="-339" y="0" type="move" name="_btm"/>
    </contour>
  </outline>
</glyph>
<glyph name="zerodeva" format="1">
  <advance width="1075"/>
  <unicode hex="0966"/>
  <outline>
    <contour>
      <point x="527" y="1092" type="curve" smooth="yes"/>
      <point x="779" y="1092"/>
      <point x="945" y="904"/>
      <point x="945" y="669" type="curve" smooth="yes"/>
      <point x="945" y="450"/>
      <point x="797" y="263"/>
      <point x="548" y="263" type="curve" smooth="yes"/>
      <point x="308" y="263"/>
      <point x="130" y="445"/>
      <point x="130" y="699" type="curve" smooth="yes"/>
      <point x="130" y="899"/>
      <point x="278" y="1092"/>
    </contour>
    <contour>
      <point x="543" y="342" type="curve" smooth="yes"/>
      <point x="741" y="342"/>
      <point x="864" y="487"/>
      <point x="864" y="678" type="curve" smooth="yes"/>
      <point x="864" y="862"/>
      <point x="722" y="1014"/>
      <point x="531" y="1014" type="curve" smooth="yes"/>
      <point x="335" y="1014"/>
      <point x="211" y="864"/>
      <point x="211" y="685" type="curve" smooth="yes"/>
      <point x="211" y="479"/>
      <point x="369" y="342"/>
    </contour>
  </outline>
</glyph>
<glyph name="abbreviationsigndeva" format="1">
  <advance width="661"/>
  <unicode hex="0970"/>
  <outline>
    <contour>
      <point x="325" y="351" type="curve" smooth="yes"/>
      <point x="173" y="351"/>
      <point x="40" y="470"/>
      <point x="40" y="625" type="curve" smooth="yes"/>
      <point x="40" y="780"/>
      <point x="158" y="886"/>
      <point x="315" y="886" type="curve" smooth="yes"/>
      <point x="471" y="886"/>
      <point x="601" y="771"/>
      <point x="601" y="614" type="curve" smooth="yes"/>
      <point x="601" y="457"/>
      <point x="478" y="351"/>
    </contour>
    <contour>
      <point x="318" y="809" type="curve" smooth="yes"/>
      <point x="207" y="809"/>
      <point x="116" y="731"/>
      <point x="116" y="621" type="curve" smooth="yes"/>
      <point x="116" y="506"/>
      <point x="207" y="429"/>
      <point x="319" y="429" type="curve" smooth="yes"/>
      <point x="431" y="429"/>
      <point x="526" y="505"/>
      <point x="526" y="619" type="curve" smooth="yes"/>
      <point x="526" y="730"/>
      <point x="427" y="809"/>
    </contour>
  </outline>
</glyph>
<glyph name="ddadevaMAW" format="1">
  <advance width="974"/>
  <unicode hex="0978"/>
  <outline>
    <contour>
      <point x="-30" y="1198" type="curve"/>
      <point x="-30" y="1274" type="line"/>
      <point x="1004" y="1274" type="line"/>
      <point x="1004" y="1198" type="line"/>
      <point x="1004" y="1198"/>
      <point x="-30" y="1198"/>
    </contour>
    <contour>
      <point x="302" y="693" type="line"/>
      <point x="392" y="722"/>
      <point x="476" y="746"/>
      <point x="580" y="746" type="curve" smooth="yes"/>
      <point x="772" y="746"/>
      <point x="869" y="619"/>
      <point x="869" y="458" type="curve" smooth="yes"/>
      <point x="869" y="330"/>
      <point x="818" y="214"/>
      <point x="737" y="107" type="curve"/>
      <point x="663" y="139" type="line"/>
      <point x="744" y="244"/>
      <point x="792" y="358"/>
      <point x="792" y="460" type="curve" smooth="yes"/>
      <point x="792" y="587"/>
      <point x="719" y="666"/>
      <point x="586" y="666" type="curve" smooth="yes"/>
      <point x="483" y="666"/>
      <point x="406" y="645"/>
      <point x="304" y="605" type="curve"/>
      <point x="334" y="630" type="line"/>
      <point x="334" y="493" type="line" smooth="yes"/>
      <point x="334" y="467"/>
      <point x="321" y="453"/>
      <point x="301" y="453" type="curve" smooth="yes"/>
      <point x="280" y="453"/>
      <point x="235" y="471"/>
      <point x="176" y="530" type="curve" smooth="yes"/>
      <point x="152" y="554"/>
      <point x="126" y="587"/>
      <point x="126" y="611" type="curve" smooth="yes"/>
      <point x="126" y="633"/>
      <point x="142" y="645"/>
      <point x="173" y="654" type="curve" smooth="yes"/>
      <point x="272" y="684" type="line"/>
      <point x="245" y="655" type="line"/>
      <point x="245" y="1238" type="line"/>
      <point x="334" y="1238" type="line"/>
      <point x="334" y="661" type="line"/>
    </contour>
    <contour>
      <point x="245" y="1274" type="move" name="top"/>
    </contour>
    <contour>
      <point x="470" y="55" type="move" name="btm"/>
    </contour>
  </outline>
</glyph>
<glyph name="emdash.deva" format="1">
  <advance width="2083"/>
  <unicode hex="2014"/>
  <outline>
    <contour>
      <point x="194" y="511" type="line"/>
      <point x="194" y="585" type="line"/>
      <point x="1889" y="585" type="line"/>
      <point x="1889" y="511" type="line"/>
    </contour>
  </outline>
</glyph>
<glyph name="quoteleft.deva" format="1">
  <advance width="647"/>
  <unicode hex="2018"/>
  <outline>
    <contour>
      <point x="227" y="865" type="line"/>
      <point x="216" y="883" type="line"/>
      <point x="235" y="950"/>
      <point x="260" y="1026"/>
      <point x="289" y="1109" type="curve" smooth="yes"/>
      <point x="319" y="1192"/>
      <point x="347" y="1261"/>
      <point x="373" y="1316" type="curve"/>
      <point x="431" y="1316" type="line"/>
      <point x="413" y="1255"/>
      <point x="394" y="1178"/>
      <point x="373" y="1084" type="curve" smooth="yes"/>
      <point x="352" y="991"/>
      <point x="339" y="918"/>
      <point x="332" y="865" type="curve"/>
    </contour>
  </outline>
</glyph>
<glyph name="quoteright.deva" format="1">
  <advance width="647"/>
  <unicode hex="2019"/>
  <outline>
    <contour>
      <point x="420" y="1316" type="line"/>
      <point x="431" y="1298" type="line"/>
      <point x="386" y="1139"/>
      <point x="334" y="994"/>
      <point x="275" y="865" type="curve"/>
      <point x="216" y="865" type="line"/>
      <point x="233" y="922"/>
      <point x="252" y="995"/>
      <point x="271" y="1082" type="curve" smooth="yes"/>
      <point x="290" y="1169"/>
      <point x="305" y="1247"/>
      <point x="315" y="1316" type="curve"/>
    </contour>
  </outline>
</glyph>
<glyph name="quotedblleft.deva" format="1">
  <advance width="933"/>
  <unicode hex="201C"/>
  <outline>
    <contour>
      <point x="456" y="865" type="line"/>
      <point x="445" y="883" type="line"/>
      <point x="466" y="955"/>
      <point x="491" y="1031"/>
      <point x="520" y="1112" type="curve" smooth="yes"/>
      <point x="549" y="1193"/>
      <point x="577" y="1261"/>
      <point x="602" y="1316" type="curve"/>
      <point x="661" y="1316" type="line"/>
      <point x="643" y="1257"/>
      <point x="624" y="1183"/>
      <point x="604" y="1092" type="curve" smooth="yes"/>
      <point x="585" y="1002"/>
      <point x="570" y="926"/>
      <point x="561" y="865" type="curve"/>
    </contour>
    <contour>
      <point x="171" y="865" type="line"/>
      <point x="160" y="883" type="line"/>
      <point x="179" y="950"/>
      <point x="204" y="1026"/>
      <point x="233" y="1109" type="curve" smooth="yes"/>
      <point x="263" y="1192"/>
      <point x="291" y="1261"/>
      <point x="317" y="1316" type="curve"/>
      <point x="375" y="1316" type="line"/>
      <point x="357" y="1255"/>
      <point x="338" y="1178"/>
      <point x="317" y="1084" type="curve" smooth="yes"/>
      <point x="296" y="991"/>
      <point x="283" y="918"/>
      <point x="276" y="865" type="curve"/>
    </contour>
  </outline>
</glyph>
<glyph name="quotedblright.deva" format="1">
  <advance width="933"/>
  <unicode hex="201D"/>
  <outline>
    <contour>
      <point x="420" y="1316" type="line"/>
      <point x="431" y="1298" type="line"/>
      <point x="386" y="1139"/>
      <point x="334" y="994"/>
      <point x="275" y="865" type="curve"/>
      <point x="216" y="865" type="line"/>
      <point x="233" y="922"/>
      <point x="252" y="995"/>
      <point x="271" y="1082" type="curve" smooth="yes"/>
      <point x="290" y="1169"/>
      <point x="305" y="1247"/>
      <point x="315" y="1316" type="curve"/>
    </contour>
    <contour>
      <point x="706" y="1316" type="line"/>
      <point x="717" y="1298" type="line"/>
      <point x="696" y="1221"/>
      <point x="670" y="1143"/>
      <point x="641" y="1063" type="curve" smooth="yes"/>
      <point x="612" y="983"/>
      <point x="585" y="917"/>
      <point x="561" y="865" type="curve"/>
      <point x="501" y="865" type="line"/>
      <point x="519" y="924"/>
      <point x="538" y="998"/>
      <point x="558" y="1088" type="curve" smooth="yes"/>
      <point x="578" y="1179"/>
      <point x="592" y="1255"/>
      <point x="601" y="1316" type="curve"/>
    </contour>
  </outline>
</glyph>
<glyph name="anusvaradeva2" format="1">
  <advance width="0"/>
  <outline>
    <contour>
      <point x="-59" y="1669" type="curve" smooth="yes"/>
      <point x="-13" y="1669"/>
      <point x="15" y="1638"/>
      <point x="15" y="1584" type="curve" smooth="yes"/>
      <point x="15" y="1531"/>
      <point x="-13" y="1499"/>
      <point x="-59" y="1499" type="curve" smooth="yes"/>
      <point x="-104" y="1499"/>
      <point x="-131" y="1531"/>
      <point x="-131" y="1584" type="curve" smooth="yes"/>
      <point x="-131" y="1638"/>
      <point x="-104" y="1669"/>
    </contour>
    <contour>
      <point x="-342.0" y="1274.0" type="move" name="_top"/>
    </contour>
  </outline>
</glyph>
<glyph name="baprehalfdeva" format="1">
  <advance width="661"/>
  <outline>
    <contour>
      <point x="741" y="422" type="line"/>
      <point x="681" y="375" type="line"/>
      <point x="290" y="825" type="line"/>
      <point x="350" y="872" type="line"/>
    </contour>
    <contour>
      <point x="691" y="1198" type="line"/>
      <point x="-30" y="1198" type="line"/>
      <point x="-30" y="1274" type="line"/>
      <point x="691" y="1274" type="line"/>
    </contour>
    <contour>
      <point x="790" y="621" type="curve" smooth="yes"/>
      <point x="790" y="741"/>
      <point x="668" y="864"/>
      <point x="492" y="864" type="curve" smooth="yes"/>
      <point x="315" y="864"/>
      <point x="215" y="771"/>
      <point x="215" y="628" type="curve" smooth="yes"/>
      <point x="215" y="484"/>
      <point x="330" y="360"/>
      <point x="494" y="360" type="curve" smooth="yes"/>
      <point x="668" y="360"/>
      <point x="790" y="486"/>
    </contour>
    <contour>
      <point x="867" y="613" type="curve" smooth="yes"/>
      <point x="867" y="443"/>
      <point x="719" y="285"/>
      <point x="504" y="285" type="curve" smooth="yes"/>
      <point x="286" y="285"/>
      <point x="134" y="449"/>
      <point x="134" y="649" type="curve" smooth="yes"/>
      <point x="134" y="818"/>
      <point x="266" y="944"/>
      <point x="471" y="944" type="curve" smooth="yes"/>
      <point x="730" y="944"/>
      <point x="867" y="773"/>
    </contour>
  </outline>
</glyph>
<glyph name="dadadeva" format="1">
  <advance width="1059"/>
  <outline>
    <contour>
      <point x="699" y="41" type="line"/>
      <point x="769" y="76" type="line"/>
      <point x="926" y="-256" type="line"/>
      <point x="852" y="-286" type="line"/>
    </contour>
    <contour>
      <point x="1089" y="1198" type="line"/>
      <point x="-30" y="1198" type="line"/>
      <point x="-30" y="1274" type="line"/>
      <point x="1089" y="1274" type="line"/>
    </contour>
    <contour>
      <point x="255" y="319" type="curve" smooth="yes"/>
      <point x="255" y="197"/>
      <point x="353" y="80"/>
      <point x="559" y="80" type="curve" smooth="yes"/>
      <point x="639" y="80"/>
      <point x="674" y="88"/>
      <point x="756" y="121" type="curve"/>
      <point x="683" y="71" type="line"/>
      <point x="656" y="117"/>
      <point x="646" y="140"/>
      <point x="646" y="167" type="curve" smooth="yes"/>
      <point x="646" y="194"/>
      <point x="665" y="218"/>
      <point x="724" y="218" type="curve" smooth="yes"/>
      <point x="811" y="218"/>
      <point x="881" y="185"/>
      <point x="881" y="143" type="curve" smooth="yes"/>
      <point x="881" y="84"/>
      <point x="766" y="0"/>
      <point x="563" y="0" type="curve" smooth="yes"/>
      <point x="320" y="0"/>
      <point x="176" y="148"/>
      <point x="176" y="331" type="curve" smooth="yes"/>
      <point x="176" y="492"/>
      <point x="305" y="628"/>
      <point x="541" y="628" type="curve" smooth="yes"/>
      <point x="668" y="628"/>
      <point x="758" y="598"/>
      <point x="849" y="551" type="curve"/>
      <point x="817" y="482" type="line"/>
      <point x="739" y="522"/>
      <point x="639" y="549"/>
      <point x="551" y="549" type="curve" smooth="yes"/>
      <point x="342" y="549"/>
      <point x="255" y="441"/>
    </contour>
    <contour>
      <point x="369" y="549" type="curve"/>
      <point x="314" y="493" type="line"/>
      <point x="195" y="559"/>
      <point x="130" y="641"/>
      <point x="130" y="747" type="curve" smooth="yes"/>
      <point x="130" y="860"/>
      <point x="215" y="951"/>
      <point x="411" y="951" type="curve" smooth="yes"/>
      <point x="746" y="951" type="line"/>
      <point x="707" y="912" type="line"/>
      <point x="707" y="1238" type="line"/>
      <point x="796" y="1238" type="line"/>
      <point x="796" y="875" type="line"/>
      <point x="409" y="875" type="line" smooth="yes"/>
      <point x="264" y="875"/>
      <point x="209" y="815"/>
      <point x="209" y="730" type="curve" smooth="yes"/>
      <point x="209" y="661"/>
      <point x="270" y="590"/>
    </contour>
    <contour>
      <point x="476" y="-196" type="move" name="btm"/>
    </contour>
    <contour>
      <point x="707" y="1274" type="move" name="top"/>
    </contour>
  </outline>
</glyph>
<glyph name="dayaprehalfdeva" format="1">
  <advance width="840"/>
  <outline>
    <contour>
      <point x="482" y="1248" type="line"/>
      <point x="571" y="1248" type="line"/>
      <point x="571" y="902" type="line"/>
      <point x="482" y="902" type="line"/>
    </contour>
    <contour>
      <point x="432" y="494" type="curve"/>
      <point x="243" y="516"/>
      <point x="119" y="608"/>
      <point x="119" y="753" type="curve" smooth="yes"/>
      <point x="119" y="880"/>
      <point x="229" y="951"/>
      <point x="397" y="951" type="curve" smooth="yes"/>
      <point x="427" y="951"/>
      <point x="516" y="951"/>
      <point x="571" y="951" type="curve"/>
      <point x="571" y="875" type="line"/>
      <point x="525" y="875"/>
      <point x="427" y="875"/>
      <point x="400" y="875" type="curve" smooth="yes"/>
      <point x="262" y="875"/>
      <point x="198" y="824"/>
      <point x="198" y="736" type="curve" smooth="yes"/>
      <point x="198" y="652"/>
      <point x="296" y="567"/>
      <point x="517" y="557" type="curve"/>
      <point x="517" y="557"/>
      <point x="432" y="494"/>
    </contour>
    <contour>
      <point x="870" y="1198" type="line"/>
      <point x="-30" y="1198" type="line"/>
      <point x="-30" y="1274" type="line"/>
      <point x="870" y="1274" type="line"/>
    </contour>
    <contour>
      <point x="304" y="381" type="curve" smooth="yes"/>
      <point x="304" y="494"/>
      <point x="398" y="617"/>
      <point x="667" y="617" type="curve" smooth="yes"/>
      <point x="680" y="617" type="line"/>
      <point x="703" y="546" type="line"/>
      <point x="693" y="546" type="line" smooth="yes"/>
      <point x="449" y="546"/>
      <point x="384" y="456"/>
      <point x="384" y="366" type="curve" smooth="yes"/>
      <point x="384" y="275"/>
      <point x="482" y="202"/>
      <point x="608" y="202" type="curve" smooth="yes"/>
      <point x="780" y="202"/>
      <point x="992" y="297"/>
      <point x="1154" y="506" type="curve"/>
      <point x="1202" y="447" type="line"/>
      <point x="1016" y="224"/>
      <point x="799" y="126"/>
      <point x="625" y="126" type="curve" smooth="yes"/>
      <point x="439" y="126"/>
      <point x="304" y="232"/>
    </contour>
  </outline>
</glyph>
<glyph name="ddaddhadeva" format="1">
  <advance width="1122"/>
  <outline>
    <contour>
      <point x="692" y="324" type="line"/>
      <point x="781" y="324" type="line"/>
      <point x="781" y="71" type="line"/>
      <point x="549" y="71" type="line" smooth="yes"/>
      <point x="293" y="71"/>
      <point x="208" y="-24"/>
      <point x="208" y="-154" type="curve" smooth="yes"/>
      <point x="208" y="-287"/>
      <point x="350" y="-389"/>
      <point x="592" y="-389" type="curve" smooth="yes"/>
      <point x="778" y="-389"/>
      <point x="855" y="-318"/>
      <point x="855" y="-250" type="curve" smooth="yes"/>
      <point x="855" y="-194"/>
      <point x="810" y="-141"/>
      <point x="713" y="-141" type="curve" smooth="yes"/>
      <point x="610" y="-141"/>
      <point x="558" y="-201"/>
      <point x="558" y="-270" type="curve" smooth="yes"/>
      <point x="558" y="-319"/>
      <point x="573" y="-364"/>
      <point x="610" y="-408" type="curve"/>
      <point x="536" y="-414" type="line"/>
      <point x="505" y="-371"/>
      <point x="483" y="-323"/>
      <point x="483" y="-261" type="curve" smooth="yes"/>
      <point x="483" y="-158"/>
      <point x="568" y="-67"/>
      <point x="708" y="-67" type="curve" smooth="yes"/>
      <point x="843" y="-67"/>
      <point x="928" y="-149"/>
      <point x="928" y="-257" type="curve" smooth="yes"/>
      <point x="928" y="-369"/>
      <point x="808" y="-462"/>
      <point x="611" y="-462" type="curve" smooth="yes"/>
      <point x="295" y="-462"/>
      <point x="128" y="-334"/>
      <point x="128" y="-135" type="curve" smooth="yes"/>
      <point x="128" y="16"/>
      <point x="255" y="147"/>
      <point x="510" y="147" type="curve" smooth="yes"/>
      <point x="733" y="147" type="line"/>
      <point x="692" y="113" type="line"/>
    </contour>
    <contour>
      <point x="782" y="1238" type="line"/>
      <point x="871" y="1238" type="line"/>
      <point x="871" y="918" type="line"/>
      <point x="466" y="918" type="line" smooth="yes"/>
      <point x="315" y="918"/>
      <point x="267" y="861"/>
      <point x="267" y="799" type="curve" smooth="yes"/>
      <point x="267" y="735"/>
      <point x="326" y="672"/>
      <point x="418" y="649" type="curve"/>
      <point x="359" y="649" type="line"/>
      <point x="461" y="698"/>
      <point x="567" y="729"/>
      <point x="675" y="729" type="curve" smooth="yes"/>
      <point x="863" y="729"/>
      <point x="977" y="634"/>
      <point x="977" y="501" type="curve" smooth="yes"/>
      <point x="977" y="366"/>
      <point x="852" y="271"/>
      <point x="626" y="271" type="curve" smooth="yes"/>
      <point x="456" y="271"/>
      <point x="304" y="308"/>
      <point x="120" y="410" type="curve"/>
      <point x="144" y="487" type="line"/>
      <point x="308" y="387"/>
      <point x="474" y="346"/>
      <point x="616" y="346" type="curve" smooth="yes"/>
      <point x="819" y="346"/>
      <point x="899" y="423"/>
      <point x="899" y="505" type="curve" smooth="yes"/>
      <point x="899" y="582"/>
      <point x="829" y="650"/>
      <point x="671" y="650" type="curve" smooth="yes"/>
      <point x="572" y="650"/>
      <point x="475" y="625"/>
      <point x="399" y="581" type="curve"/>
      <point x="389" y="577" type="line"/>
      <point x="265" y="630"/>
      <point x="186" y="707"/>
      <point x="186" y="807" type="curve" smooth="yes"/>
      <point x="186" y="904"/>
      <point x="263" y="994"/>
      <point x="465" y="994" type="curve" smooth="yes"/>
      <point x="821" y="994" type="line"/>
      <point x="782" y="955" type="line"/>
    </contour>
    <contour>
      <point x="1152" y="1198" type="line"/>
      <point x="-30" y="1198" type="line"/>
      <point x="-30" y="1274" type="line"/>
      <point x="1152" y="1274" type="line"/>
    </contour>
    <contour>
      <point x="558.0" y="-455.0" type="move" name="btm"/>
    </contour>
    <contour>
      <point x="782" y="1274" type="move" name="top"/>
    </contour>
  </outline>
</glyph>
<glyph name="ddhaddhadeva" format="1">
  <advance width="1095"/>
  <outline>
    <contour>
      <point x="704" y="324" type="line"/>
      <point x="793" y="324" type="line"/>
      <point x="793" y="71" type="line"/>
      <point x="581" y="71" type="line" smooth="yes"/>
      <point x="325" y="71"/>
      <point x="240" y="-24"/>
      <point x="240" y="-154" type="curve" smooth="yes"/>
      <point x="240" y="-287"/>
      <point x="382" y="-389"/>
      <point x="624" y="-389" type="curve" smooth="yes"/>
      <point x="810" y="-389"/>
      <point x="887" y="-318"/>
      <point x="887" y="-250" type="curve" smooth="yes"/>
      <point x="887" y="-194"/>
      <point x="842" y="-141"/>
      <point x="745" y="-141" type="curve" smooth="yes"/>
      <point x="642" y="-141"/>
      <point x="590" y="-201"/>
      <point x="590" y="-270" type="curve" smooth="yes"/>
      <point x="590" y="-319"/>
      <point x="605" y="-364"/>
      <point x="642" y="-408" type="curve"/>
      <point x="568" y="-414" type="line"/>
      <point x="537" y="-371"/>
      <point x="515" y="-323"/>
      <point x="515" y="-261" type="curve" smooth="yes"/>
      <point x="515" y="-158"/>
      <point x="600" y="-67"/>
      <point x="740" y="-67" type="curve" smooth="yes"/>
      <point x="875" y="-67"/>
      <point x="960" y="-149"/>
      <point x="960" y="-257" type="curve" smooth="yes"/>
      <point x="960" y="-369"/>
      <point x="840" y="-462"/>
      <point x="643" y="-462" type="curve" smooth="yes"/>
      <point x="327" y="-462"/>
      <point x="160" y="-334"/>
      <point x="160" y="-135" type="curve" smooth="yes"/>
      <point x="160" y="16"/>
      <point x="287" y="147"/>
      <point x="542" y="147" type="curve" smooth="yes"/>
      <point x="745" y="147" type="line"/>
      <point x="704" y="113" type="line"/>
    </contour>
    <contour>
      <point x="1125" y="1198" type="line"/>
      <point x="-30" y="1198" type="line"/>
      <point x="-30" y="1274" type="line"/>
      <point x="1125" y="1274" type="line"/>
    </contour>
    <contour>
      <point x="743" y="1228" type="line"/>
      <point x="832" y="1228" type="line"/>
      <point x="832" y="905" type="line"/>
      <point x="590" y="905" type="line" smooth="yes"/>
      <point x="344" y="905"/>
      <point x="225" y="802"/>
      <point x="225" y="650" type="curve" smooth="yes"/>
      <point x="225" y="487"/>
      <point x="391" y="375"/>
      <point x="633" y="375" type="curve" smooth="yes"/>
      <point x="839" y="375"/>
      <point x="922" y="441"/>
      <point x="922" y="517" type="curve" smooth="yes"/>
      <point x="922" y="581"/>
      <point x="865" y="633"/>
      <point x="768" y="633" type="curve" smooth="yes"/>
      <point x="665" y="633"/>
      <point x="609" y="582"/>
      <point x="609" y="492" type="curve" smooth="yes"/>
      <point x="609" y="440"/>
      <point x="629" y="395"/>
      <point x="667" y="356" type="curve"/>
      <point x="586" y="350" type="line"/>
      <point x="551" y="392"/>
      <point x="531" y="450"/>
      <point x="531" y="507" type="curve" smooth="yes"/>
      <point x="531" y="631"/>
      <point x="621" y="708"/>
      <point x="761" y="708" type="curve" smooth="yes"/>
      <point x="896" y="708"/>
      <point x="998" y="630"/>
      <point x="998" y="507" type="curve" smooth="yes"/>
      <point x="998" y="387"/>
      <point x="860" y="302"/>
      <point x="652" y="302" type="curve" smooth="yes"/>
      <point x="326" y="302"/>
      <point x="140" y="451"/>
      <point x="140" y="670" type="curve" smooth="yes"/>
      <point x="140" y="841"/>
      <point x="298" y="981"/>
      <point x="551" y="981" type="curve" smooth="yes"/>
      <point x="784" y="981" type="line"/>
      <point x="743" y="947" type="line"/>
    </contour>
    <contour>
      <point x="743" y="1274" type="move" name="top"/>
    </contour>
    <contour>
      <point x="558.0" y="-455.0" type="move" name="btm"/>
    </contour>
  </outline>
</glyph>
<glyph name="ddharadeva" format="1">
  <advance width="1095"/>
  <outline>
    <component base="vattudeva" xOffset="914" yOffset="100"/>
    <component base="ddhadeva"/>
    <contour>
      <point x="743" y="1274" type="move" name="top"/>
    </contour>
    <contour>
      <point x="583" y="-204" type="move" name="btm"/>
    </contour>
  </outline>
</glyph>
<glyph name="ddhayadeva" format="1">
  <advance width="2212"/>
  <outline>
    <contour>
      <point x="1873" y="1226" type="line"/>
      <point x="1962" y="1226" type="line"/>
      <point x="1962" y="0" type="line"/>
      <point x="1873" y="0" type="line"/>
    </contour>
    <contour>
      <point x="1035" y="1198" type="curve"/>
      <point x="1035" y="1274" type="line"/>
      <point x="2242" y="1274" type="line"/>
      <point x="2242" y="1198" type="line"/>
      <point x="2242" y="1198"/>
      <point x="1035" y="1198"/>
    </contour>
    <contour>
      <point x="801" y="810" type="line"/>
      <point x="800" y="886" type="line"/>
      <point x="1254" y="886" type="line" smooth="yes"/>
      <point x="1448" y="886"/>
      <point x="1535" y="803"/>
      <point x="1535" y="670" type="curve" smooth="yes"/>
      <point x="1535" y="539"/>
      <point x="1406" y="466"/>
      <point x="1206" y="413" type="curve"/>
      <point x="1213" y="476" type="line"/>
      <point x="1290" y="325"/>
      <point x="1433" y="239"/>
      <point x="1570" y="239" type="curve" smooth="yes"/>
      <point x="1702" y="239"/>
      <point x="1821" y="297"/>
      <point x="1925" y="433" type="curve"/>
      <point x="1924" y="320" type="line"/>
      <point x="1837" y="223"/>
      <point x="1725" y="161"/>
      <point x="1575" y="161" type="curve" smooth="yes"/>
      <point x="1407" y="161"/>
      <point x="1243" y="260"/>
      <point x="1127" y="462" type="curve"/>
      <point x="1127" y="467" type="line"/>
      <point x="1348" y="527"/>
      <point x="1455" y="582"/>
      <point x="1455" y="674" type="curve" smooth="yes"/>
      <point x="1455" y="757"/>
      <point x="1395" y="810"/>
      <point x="1244" y="810" type="curve" smooth="yes"/>
    </contour>
    <component base="ddhadeva"/>
    <contour>
      <point x="1873" y="1274" type="move" name="top"/>
    </contour>
  </outline>
</glyph>
<glyph name="ecandravowelsignanusvaradeva" format="1">
  <advance width="0"/>
  <outline>
    <component base="candrabindudeva"/>
    <contour>
      <point x="-342.0" y="1274.0" type="move" name="_top"/>
    </contour>
  </outline>
</glyph>
<glyph name="eshortvowelsignrephanusdeva" format="1">
  <advance width="0"/>
  <outline>
    <contour>
      <point x="-269" y="1244" type="line"/>
      <point x="-327" y="1344"/>
      <point x="-336" y="1454"/>
      <point x="-336" y="1554" type="curve" smooth="yes"/>
      <point x="-336" y="1666"/>
      <point x="-258" y="1761"/>
      <point x="-116" y="1761" type="curve" smooth="yes"/>
      <point x="-52" y="1761"/>
      <point x="-16" y="1753"/>
      <point x="27" y="1742" type="curve"/>
      <point x="19" y="1670" type="line"/>
      <point x="-21" y="1679"/>
      <point x="-54" y="1684"/>
      <point x="-95" y="1684" type="curve" smooth="yes"/>
      <point x="-204" y="1684"/>
      <point x="-253" y="1622"/>
      <point x="-253" y="1535" type="curve" smooth="yes"/>
      <point x="-253" y="1482"/>
      <point x="-253" y="1337"/>
      <point x="-253" y="1244" type="curve"/>
    </contour>
    <contour>
      <point x="-82" y="1565" type="curve" smooth="yes"/>
      <point x="-41" y="1565"/>
      <point x="-16" y="1535"/>
      <point x="-16" y="1485" type="curve" smooth="yes"/>
      <point x="-16" y="1436"/>
      <point x="-41" y="1405"/>
      <point x="-82" y="1405" type="curve" smooth="yes"/>
      <point x="-122" y="1405"/>
      <point x="-146" y="1436"/>
      <point x="-146" y="1485" type="curve" smooth="yes"/>
      <point x="-146" y="1535"/>
      <point x="-122" y="1565"/>
    </contour>
    <component base="eshortvowelsigndeva"/>
    <contour>
      <point x="-342.0" y="1274.0" type="move" name="_top"/>
    </contour>
  </outline>
</glyph>
<glyph name="garaprehalfdeva" format="1">
  <advance width="628"/>
  <outline>
    <contour>
      <point x="658" y="1198" type="line"/>
      <point x="658" y="1198"/>
      <point x="-30" y="1198"/>
      <point x="-30" y="1198" type="curve"/>
      <point x="-30" y="1274" type="line"/>
      <point x="-30" y="1274"/>
      <point x="658" y="1274"/>
      <point x="658" y="1274" type="curve"/>
    </contour>
    <contour>
      <point x="902" y="471" type="line"/>
      <point x="308" y="-25" type="line"/>
      <point x="252" y="37" type="line"/>
      <point x="853" y="537" type="line"/>
    </contour>
    <contour>
      <point x="384" y="1238" type="line"/>
      <point x="384" y="1238"/>
      <point x="384" y="483"/>
      <point x="384" y="483" type="curve" smooth="yes"/>
      <point x="384" y="454"/>
      <point x="375" y="444"/>
      <point x="346" y="444" type="curve" smooth="yes"/>
      <point x="308" y="444"/>
      <point x="171" y="599"/>
      <point x="171" y="639" type="curve" smooth="yes"/>
      <point x="171" y="660"/>
      <point x="181" y="674"/>
      <point x="216" y="674" type="curve" smooth="yes"/>
      <point x="322" y="674" type="line"/>
      <point x="295" y="645" type="line"/>
      <point x="295" y="1238" type="line"/>
    </contour>
  </outline>
</glyph>
<glyph name="haradeva" format="1">
  <advance width="1114"/>
  <outline>
    <contour>
      <point x="839" y="517" type="line"/>
      <point x="543" y="149" type="line"/>
      <point x="476" y="196" type="line"/>
      <point x="774" y="564" type="line"/>
    </contour>
    <contour>
      <point x="776" y="1238" type="line"/>
      <point x="865" y="1238" type="line"/>
      <point x="865" y="875" type="line"/>
      <point x="402" y="875" type="line" smooth="yes"/>
      <point x="268" y="875"/>
      <point x="209" y="809"/>
      <point x="209" y="731" type="curve" smooth="yes"/>
      <point x="209" y="654"/>
      <point x="271" y="588"/>
      <point x="370" y="551" type="curve"/>
      <point x="339" y="482" type="line"/>
      <point x="203" y="543"/>
      <point x="131" y="639"/>
      <point x="131" y="739" type="curve" smooth="yes"/>
      <point x="131" y="858"/>
      <point x="212" y="951"/>
      <point x="412" y="951" type="curve" smooth="yes"/>
      <point x="815" y="951" type="line"/>
      <point x="776" y="912" type="line"/>
    </contour>
    <contour>
      <point x="588" y="621" type="curve" smooth="yes"/>
      <point x="813" y="621"/>
      <point x="946" y="498"/>
      <point x="946" y="339" type="curve" smooth="yes"/>
      <point x="946" y="262"/>
      <point x="920" y="191"/>
      <point x="883" y="133" type="curve"/>
      <point x="809" y="160" type="line"/>
      <point x="846" y="211"/>
      <point x="867" y="275"/>
      <point x="867" y="338" type="curve" smooth="yes"/>
      <point x="867" y="443"/>
      <point x="775" y="540"/>
      <point x="592" y="541" type="curve" smooth="yes"/>
      <point x="407" y="542"/>
      <point x="291" y="417"/>
      <point x="291" y="260" type="curve" smooth="yes"/>
      <point x="291" y="70"/>
      <point x="454" y="-80"/>
      <point x="859" y="-125" type="curve"/>
      <point x="836" y="-199" type="line"/>
      <point x="425" y="-158"/>
      <point x="209" y="20"/>
      <point x="209" y="272" type="curve" smooth="yes"/>
      <point x="209" y="462"/>
      <point x="354" y="621"/>
    </contour>
    <contour>
      <point x="1144" y="1198" type="line"/>
      <point x="-30" y="1198" type="line"/>
      <point x="-30" y="1274" type="line"/>
      <point x="1144" y="1274" type="line"/>
    </contour>
    <contour>
      <point x="776" y="1274" type="move" name="top"/>
    </contour>
  </outline>
</glyph>
<glyph name="harauudeva" format="1">
  <advance width="1114"/>
  <outline>
    <contour>
      <point x="839" y="517" type="line"/>
      <point x="543" y="149" type="line"/>
      <point x="476" y="196" type="line"/>
      <point x="774" y="564" type="line"/>
    </contour>
    <contour>
      <point x="588" y="621" type="curve" smooth="yes"/>
      <point x="813" y="621"/>
      <point x="946" y="498"/>
      <point x="946" y="339" type="curve" smooth="yes"/>
      <point x="946" y="262"/>
      <point x="920" y="191"/>
      <point x="883" y="133" type="curve"/>
      <point x="809" y="160" type="line"/>
      <point x="846" y="211"/>
      <point x="867" y="275"/>
      <point x="867" y="338" type="curve" smooth="yes"/>
      <point x="867" y="443"/>
      <point x="775" y="541"/>
      <point x="592" y="541" type="curve" smooth="yes"/>
      <point x="407" y="541"/>
      <point x="291" y="417"/>
      <point x="291" y="260" type="curve" smooth="yes"/>
      <point x="291" y="70"/>
      <point x="455" y="-35"/>
      <point x="643" y="-86" type="curve"/>
      <point x="620" y="-160" type="line"/>
      <point x="426" y="-110"/>
      <point x="209" y="20"/>
      <point x="209" y="272" type="curve" smooth="yes"/>
      <point x="209" y="462"/>
      <point x="354" y="621"/>
    </contour>
    <contour>
      <point x="776" y="1238" type="line"/>
      <point x="865" y="1238" type="line"/>
      <point x="865" y="875" type="line"/>
      <point x="402" y="875" type="line" smooth="yes"/>
      <point x="268" y="875"/>
      <point x="209" y="809"/>
      <point x="209" y="731" type="curve" smooth="yes"/>
      <point x="209" y="654"/>
      <point x="271" y="588"/>
      <point x="370" y="551" type="curve"/>
      <point x="339" y="482" type="line"/>
      <point x="203" y="543"/>
      <point x="131" y="639"/>
      <point x="131" y="739" type="curve" smooth="yes"/>
      <point x="131" y="858"/>
      <point x="212" y="951"/>
      <point x="412" y="951" type="curve" smooth="yes"/>
      <point x="815" y="951" type="line"/>
      <point x="776" y="912" type="line"/>
    </contour>
    <contour>
      <point x="1144" y="1198" type="line"/>
      <point x="-30" y="1198" type="line"/>
      <point x="-30" y="1274" type="line"/>
      <point x="1144" y="1274" type="line"/>
    </contour>
    <component base="uuvowelsigndeva" xOffset="822" yOffset="-79"/>
  </outline>
</glyph>
<glyph name="hauudeva" format="1">
  <advance width="1114"/>
  <outline>
    <contour>
      <point x="776" y="1238" type="line"/>
      <point x="865" y="1238" type="line"/>
      <point x="865" y="875" type="line"/>
      <point x="402" y="875" type="line" smooth="yes"/>
      <point x="268" y="875"/>
      <point x="209" y="809"/>
      <point x="209" y="731" type="curve" smooth="yes"/>
      <point x="209" y="654"/>
      <point x="271" y="588"/>
      <point x="370" y="551" type="curve"/>
      <point x="339" y="482" type="line"/>
      <point x="203" y="543"/>
      <point x="131" y="639"/>
      <point x="131" y="739" type="curve" smooth="yes"/>
      <point x="131" y="858"/>
      <point x="212" y="951"/>
      <point x="412" y="951" type="curve" smooth="yes"/>
      <point x="815" y="951" type="line"/>
      <point x="776" y="912" type="line"/>
    </contour>
    <contour>
      <point x="588" y="621" type="curve" smooth="yes"/>
      <point x="813" y="621"/>
      <point x="946" y="498"/>
      <point x="946" y="339" type="curve" smooth="yes"/>
      <point x="946" y="262"/>
      <point x="920" y="191"/>
      <point x="883" y="133" type="curve"/>
      <point x="809" y="160" type="line"/>
      <point x="846" y="211"/>
      <point x="867" y="275"/>
      <point x="867" y="338" type="curve" smooth="yes"/>
      <point x="867" y="443"/>
      <point x="775" y="541"/>
      <point x="592" y="541" type="curve" smooth="yes"/>
      <point x="407" y="541"/>
      <point x="291" y="417"/>
      <point x="291" y="260" type="curve" smooth="yes"/>
      <point x="291" y="70"/>
      <point x="456" y="-38"/>
      <point x="640" y="-85" type="curve"/>
      <point x="617" y="-159" type="line"/>
      <point x="427" y="-116"/>
      <point x="209" y="20"/>
      <point x="209" y="272" type="curve" smooth="yes"/>
      <point x="209" y="462"/>
      <point x="354" y="621"/>
    </contour>
    <contour>
      <point x="1144" y="1198" type="line"/>
      <point x="-30" y="1198" type="line"/>
      <point x="-30" y="1274" type="line"/>
      <point x="1144" y="1274" type="line"/>
    </contour>
    <component base="uuvowelsigndeva" xOffset="822" yOffset="-79"/>
  </outline>
</glyph>
<glyph name="iivowelsign2deva" format="1">
  <advance width="567"/>
  <outline>
    <contour>
      <point x="232" y="1239" type="curve"/>
      <point x="134" y="1500"/>
      <point x="6" y="1659"/>
      <point x="-146" y="1659" type="curve" smooth="yes"/>
      <point x="-234" y="1659"/>
      <point x="-291" y="1592"/>
      <point x="-291" y="1493" type="curve" smooth="yes"/>
      <point x="-291" y="1424"/>
      <point x="-274" y="1349"/>
      <point x="-219" y="1260" type="curve"/>
      <point x="-307" y="1260" type="line"/>
      <point x="-349" y="1345"/>
      <point x="-371" y="1431"/>
      <point x="-371" y="1508" type="curve" smooth="yes"/>
      <point x="-371" y="1643"/>
      <point x="-282" y="1741"/>
      <point x="-155" y="1741" type="curve" smooth="yes"/>
      <point x="45" y="1741"/>
      <point x="199" y="1576"/>
      <point x="321" y="1239" type="curve"/>
      <point x="321" y="1239"/>
      <point x="232" y="1239"/>
    </contour>
    <component base="aavowelsigndeva"/>
  </outline>
</glyph>
<glyph name="iivowelsign3deva" format="1">
  <advance width="567"/>
  <outline>
    <contour>
      <point x="231" y="1239" type="curve"/>
      <point x="-35" y="1502"/>
      <point x="-301" y="1661"/>
      <point x="-549" y="1661" type="curve" smooth="yes"/>
      <point x="-713" y="1661"/>
      <point x="-777" y="1574"/>
      <point x="-777" y="1472" type="curve" smooth="yes"/>
      <point x="-777" y="1402"/>
      <point x="-751" y="1337"/>
      <point x="-692" y="1260" type="curve"/>
      <point x="-785" y="1260" type="line"/>
      <point x="-829" y="1328"/>
      <point x="-858" y="1409"/>
      <point x="-858" y="1486" type="curve" smooth="yes"/>
      <point x="-858" y="1619"/>
      <point x="-762" y="1741"/>
      <point x="-561" y="1741" type="curve" smooth="yes"/>
      <point x="-263" y="1741"/>
      <point x="56" y="1549"/>
      <point x="336" y="1239" type="curve"/>
      <point x="336" y="1239"/>
      <point x="231" y="1239"/>
    </contour>
    <component base="aavowelsigndeva"/>
  </outline>
</glyph>
<glyph name="jaraprehalfdeva" format="1">
  <advance width="1012"/>
  <outline>
    <contour>
      <point x="610" y="760" type="line"/>
      <point x="608" y="787" type="line"/>
      <point x="767" y="721"/>
      <point x="887" y="581"/>
      <point x="887" y="426" type="curve" smooth="yes"/>
      <point x="887" y="268"/>
      <point x="782" y="149"/>
      <point x="601" y="149" type="curve" smooth="yes"/>
      <point x="419" y="149"/>
      <point x="254" y="282"/>
      <point x="92" y="554" type="curve"/>
      <point x="143" y="617" type="line"/>
      <point x="303" y="346"/>
      <point x="449" y="229"/>
      <point x="594" y="229" type="curve" smooth="yes"/>
      <point x="735" y="229"/>
      <point x="808" y="315"/>
      <point x="808" y="432" type="curve" smooth="yes"/>
      <point x="808" y="565"/>
      <point x="678" y="706"/>
      <point x="478" y="767" type="curve"/>
      <point x="478" y="836" type="line"/>
      <point x="1255" y="836" type="line"/>
      <point x="1246" y="760" type="line"/>
    </contour>
    <contour>
      <point x="1367" y="363" type="line"/>
      <point x="715" y="-153" type="line"/>
      <point x="663" y="-92" type="line"/>
      <point x="1316" y="425" type="line"/>
    </contour>
    <contour>
      <point x="-30" y="1198" type="curve"/>
      <point x="-30" y="1274" type="line"/>
      <point x="1042" y="1274" type="line"/>
      <point x="1042" y="1198" type="line"/>
      <point x="1042" y="1198"/>
      <point x="-30" y="1198"/>
    </contour>
  </outline>
</glyph>
<glyph name="kassaprehalfdeva" format="1">
  <advance width="893"/>
  <outline>
    <contour>
      <point x="567" y="177" type="line"/>
      <point x="637" y="212" type="line"/>
      <point x="777" y="-83" type="line"/>
      <point x="705" y="-113" type="line"/>
    </contour>
    <contour>
      <point x="214.0" y="394.0" type="curve" smooth="yes"/>
      <point x="214.0" y="290.0"/>
      <point x="302.0" y="195.0"/>
      <point x="454.0" y="195.0" type="curve" smooth="yes"/>
      <point x="508.0" y="195.0"/>
      <point x="576.0" y="212.0"/>
      <point x="644.0" y="249.0" type="curve"/>
      <point x="555.0" y="197.0" type="line"/>
      <point x="530.0" y="243.0"/>
      <point x="521.0" y="264.0"/>
      <point x="521.0" y="294.0" type="curve" smooth="yes"/>
      <point x="521.0" y="322.0"/>
      <point x="550.0" y="341.0"/>
      <point x="602.0" y="341.0" type="curve" smooth="yes"/>
      <point x="673.0" y="341.0"/>
      <point x="756.0" y="311.0"/>
      <point x="756.0" y="263.0" type="curve" smooth="yes"/>
      <point x="756.0" y="217.0"/>
      <point x="656.0" y="116.0"/>
      <point x="454.0" y="116.0" type="curve" smooth="yes"/>
      <point x="260.0" y="116.0"/>
      <point x="135.0" y="251.0"/>
      <point x="135.0" y="401.0" type="curve" smooth="yes"/>
      <point x="135.0" y="531.0"/>
      <point x="216.0" y="644.0"/>
      <point x="396.0" y="759.0" type="curve" smooth="yes"/>
      <point x="569.0" y="870.0"/>
      <point x="651.0" y="960.0"/>
      <point x="651.0" y="1063.0" type="curve" smooth="yes"/>
      <point x="651.0" y="1158.0"/>
      <point x="573.0" y="1226.0"/>
      <point x="473.0" y="1226.0" type="curve" smooth="yes"/>
      <point x="362.0" y="1226.0"/>
      <point x="294.0" y="1153.0"/>
      <point x="294.0" y="1053.0" type="curve" smooth="yes"/>
      <point x="294.0" y="833.0"/>
      <point x="680" y="641"/>
      <point x="1089" y="641" type="curve" smooth="yes"/>
      <point x="1092" y="641"/>
      <point x="1096" y="641"/>
      <point x="1099" y="641" type="curve"/>
      <point x="1084" y="571" type="line"/>
      <point x="1080" y="571"/>
      <point x="1076" y="571"/>
      <point x="1072" y="571" type="curve" smooth="yes"/>
      <point x="640" y="571"/>
      <point x="215.0" y="785.0"/>
      <point x="215.0" y="1068.0" type="curve" smooth="yes"/>
      <point x="215.0" y="1195.0"/>
      <point x="314.0" y="1303.0"/>
      <point x="463.0" y="1303.0" type="curve" smooth="yes"/>
      <point x="630.0" y="1303.0"/>
      <point x="728.0" y="1194.0"/>
      <point x="728.0" y="1057.0" type="curve" smooth="yes"/>
      <point x="728.0" y="928.0"/>
      <point x="621.0" y="810.0"/>
      <point x="452.0" y="701.0" type="curve" smooth="yes"/>
      <point x="277.0" y="588.0"/>
      <point x="214.0" y="503.0"/>
    </contour>
  </outline>
</glyph>
<glyph name="kassaraprehalfdeva" format="1">
  <advance width="944"/>
  <outline>
    <contour>
      <point x="518" y="167" type="line"/>
      <point x="588" y="202" type="line"/>
      <point x="728" y="-93" type="line"/>
      <point x="656" y="-123" type="line"/>
    </contour>
    <contour>
      <point x="493" y="691" type="curve" smooth="yes"/>
      <point x="269" y="558"/>
      <point x="212" y="477"/>
      <point x="212" y="374" type="curve" smooth="yes"/>
      <point x="212" y="270"/>
      <point x="283" y="185"/>
      <point x="435" y="185" type="curve" smooth="yes"/>
      <point x="479" y="185"/>
      <point x="527" y="202"/>
      <point x="595" y="239" type="curve"/>
      <point x="506" y="187" type="line"/>
      <point x="481" y="233"/>
      <point x="472" y="254"/>
      <point x="472" y="284" type="curve" smooth="yes"/>
      <point x="472" y="312"/>
      <point x="501" y="331"/>
      <point x="553" y="331" type="curve" smooth="yes"/>
      <point x="624" y="331"/>
      <point x="707" y="301"/>
      <point x="707" y="253" type="curve" smooth="yes"/>
      <point x="707" y="207"/>
      <point x="607" y="106"/>
      <point x="435" y="106" type="curve" smooth="yes"/>
      <point x="241" y="106"/>
      <point x="133" y="231"/>
      <point x="133" y="381" type="curve" smooth="yes"/>
      <point x="133" y="501"/>
      <point x="208" y="614"/>
      <point x="437" y="749" type="curve" smooth="yes"/>
      <point x="633" y="865"/>
      <point x="702" y="960"/>
      <point x="702" y="1063" type="curve" smooth="yes"/>
      <point x="702" y="1158"/>
      <point x="624" y="1226"/>
      <point x="524" y="1226" type="curve" smooth="yes"/>
      <point x="413" y="1226"/>
      <point x="345" y="1153"/>
      <point x="345" y="1053" type="curve" smooth="yes"/>
      <point x="345" y="830"/>
      <point x="668" y="641"/>
      <point x="1150" y="641" type="curve"/>
      <point x="1135" y="571" type="line"/>
      <point x="631" y="571"/>
      <point x="266" y="782"/>
      <point x="266" y="1068" type="curve" smooth="yes"/>
      <point x="266" y="1195"/>
      <point x="365" y="1303"/>
      <point x="514" y="1303" type="curve" smooth="yes"/>
      <point x="681" y="1303"/>
      <point x="779" y="1194"/>
      <point x="779" y="1057" type="curve" smooth="yes"/>
      <point x="779" y="928"/>
      <point x="684" y="805"/>
    </contour>
    <contour>
      <point x="1133" y="573" type="line"/>
      <point x="842" y="172" type="line"/>
      <point x="776" y="215" type="line"/>
      <point x="1052" y="588" type="line"/>
    </contour>
  </outline>
</glyph>
<glyph name="kharadeva" format="1">
  <advance width="1593"/>
  <outline>
    <contour>
      <point x="1321" y="312" type="line"/>
      <point x="608" y="-86" type="line"/>
      <point x="565" y="-19" type="line"/>
      <point x="1283" y="379" type="line"/>
    </contour>
    <contour>
      <point x="1304" y="798" type="line"/>
      <point x="1225" y="852"/>
      <point x="1128" y="882"/>
      <point x="1036" y="882" type="curve" smooth="yes"/>
      <point x="884" y="882"/>
      <point x="823" y="800"/>
      <point x="823" y="708" type="curve" smooth="yes"/>
      <point x="823" y="605"/>
      <point x="906" y="526"/>
      <point x="1029" y="526" type="curve" smooth="yes"/>
      <point x="1117" y="526"/>
      <point x="1201" y="558"/>
      <point x="1283" y="635" type="curve"/>
      <point x="1283" y="538" type="line"/>
      <point x="1212" y="483"/>
      <point x="1121" y="452"/>
      <point x="1032" y="452" type="curve" smooth="yes"/>
      <point x="868" y="452"/>
      <point x="747" y="568"/>
      <point x="747" y="721" type="curve" smooth="yes"/>
      <point x="747" y="854"/>
      <point x="849" y="957"/>
      <point x="1021" y="957" type="curve" smooth="yes"/>
      <point x="1125" y="957"/>
      <point x="1210" y="933"/>
      <point x="1304" y="883" type="curve"/>
    </contour>
    <contour>
      <point x="213" y="633" type="line"/>
      <point x="415" y="706"/>
      <point x="469" y="803"/>
      <point x="469" y="990" type="curve" smooth="yes"/>
      <point x="469" y="1228" type="line"/>
      <point x="558" y="1228" type="line"/>
      <point x="558" y="977" type="line" smooth="yes"/>
      <point x="558" y="804"/>
      <point x="504" y="653"/>
      <point x="256" y="562" type="curve"/>
    </contour>
    <contour>
      <point x="-30" y="1198" type="line"/>
      <point x="-30" y="1274" type="line"/>
      <point x="1623" y="1274" type="line"/>
      <point x="1623" y="1198" type="line"/>
    </contour>
    <contour>
      <point x="1254" y="1226" type="line"/>
      <point x="1343" y="1226" type="line"/>
      <point x="1343" y="0" type="line"/>
      <point x="1254" y="0" type="line"/>
    </contour>
    <contour>
      <point x="245" y="604" type="line"/>
      <point x="292" y="524"/>
      <point x="325" y="484"/>
      <point x="386" y="423" type="curve" smooth="yes"/>
      <point x="521" y="288"/>
      <point x="753" y="189"/>
      <point x="1018" y="189" type="curve"/>
      <point x="957" y="119" type="line"/>
      <point x="706" y="119"/>
      <point x="479" y="220"/>
      <point x="331" y="368" type="curve" smooth="yes"/>
      <point x="244" y="455"/>
      <point x="159" y="582"/>
      <point x="102" y="690" type="curve" smooth="yes"/>
      <point x="87" y="719"/>
      <point x="75" y="746"/>
      <point x="75" y="764" type="curve" smooth="yes"/>
      <point x="75" y="787"/>
      <point x="91" y="801"/>
      <point x="110" y="801" type="curve" smooth="yes"/>
      <point x="129" y="801"/>
      <point x="144" y="791"/>
      <point x="161" y="760" type="curve" smooth="yes"/>
      <point x="234" y="626" type="line"/>
    </contour>
    <contour>
      <point x="1254" y="1274" type="move" name="top"/>
    </contour>
  </outline>
</glyph>
<glyph name="kharaprehalfdeva" format="1">
  <advance width="1174"/>
  <outline>
    <contour>
      <point x="213" y="633" type="line"/>
      <point x="415" y="706"/>
      <point x="469" y="803"/>
      <point x="469" y="990" type="curve" smooth="yes"/>
      <point x="469" y="1228" type="line"/>
      <point x="558" y="1228" type="line"/>
      <point x="558" y="977" type="line" smooth="yes"/>
      <point x="558" y="804"/>
      <point x="504" y="653"/>
      <point x="256" y="562" type="curve"/>
    </contour>
    <contour>
      <point x="1317" y="691" type="curve" smooth="yes"/>
      <point x="1317" y="559"/>
      <point x="1193" y="451"/>
      <point x="1036" y="451" type="curve" smooth="yes"/>
      <point x="873" y="451"/>
      <point x="747" y="561"/>
      <point x="747" y="726" type="curve" smooth="yes"/>
      <point x="747" y="848"/>
      <point x="846" y="955"/>
      <point x="1004" y="955" type="curve" smooth="yes"/>
      <point x="1193" y="955"/>
      <point x="1317" y="840"/>
    </contour>
    <contour>
      <point x="245" y="604" type="line"/>
      <point x="292" y="524"/>
      <point x="325" y="484"/>
      <point x="386" y="423" type="curve" smooth="yes"/>
      <point x="521" y="288"/>
      <point x="753" y="189"/>
      <point x="1018" y="189" type="curve"/>
      <point x="957" y="119" type="line"/>
      <point x="706" y="119"/>
      <point x="479" y="220"/>
      <point x="331" y="368" type="curve" smooth="yes"/>
      <point x="244" y="455"/>
      <point x="159" y="582"/>
      <point x="102" y="690" type="curve" smooth="yes"/>
      <point x="87" y="719"/>
      <point x="75" y="746"/>
      <point x="75" y="764" type="curve" smooth="yes"/>
      <point x="75" y="787"/>
      <point x="91" y="801"/>
      <point x="110" y="801" type="curve" smooth="yes"/>
      <point x="129" y="801"/>
      <point x="144" y="791"/>
      <point x="161" y="760" type="curve" smooth="yes"/>
      <point x="234" y="626" type="line"/>
    </contour>
    <contour>
      <point x="-30" y="1198" type="line"/>
      <point x="-30" y="1274" type="line"/>
      <point x="1204" y="1274" type="line"/>
      <point x="1204" y="1198" type="line"/>
    </contour>
    <contour>
      <point x="1242" y="697" type="curve" smooth="yes"/>
      <point x="1242" y="802"/>
      <point x="1144" y="880"/>
      <point x="1016" y="880" type="curve" smooth="yes"/>
      <point x="884" y="880"/>
      <point x="823" y="795"/>
      <point x="823" y="709" type="curve" smooth="yes"/>
      <point x="823" y="606"/>
      <point x="913" y="525"/>
      <point x="1021" y="525" type="curve" smooth="yes"/>
      <point x="1157" y="525"/>
      <point x="1242" y="601"/>
    </contour>
    <contour>
      <point x="1454" y="385" type="line"/>
      <point x="607" y="-86" type="line"/>
      <point x="564" y="-19" type="line"/>
      <point x="1417" y="453" type="line"/>
    </contour>
  </outline>
</glyph>
<glyph name="lajadeva" format="1">
  <advance width="2495"/>
  <outline>
    <contour>
      <point x="788" y="623" type="curve"/>
      <point x="729" y="579" type="line"/>
      <point x="642" y="690"/>
      <point x="554" y="755"/>
      <point x="430" y="755" type="curve" smooth="yes"/>
      <point x="292" y="755"/>
      <point x="214" y="660"/>
      <point x="214" y="539" type="curve" smooth="yes"/>
      <point x="214" y="422"/>
      <point x="290" y="283"/>
      <point x="501" y="94" type="curve"/>
      <point x="440" y="42" type="line"/>
      <point x="241" y="226"/>
      <point x="132" y="395"/>
      <point x="132" y="552" type="curve" smooth="yes"/>
      <point x="132" y="700"/>
      <point x="235" y="836"/>
      <point x="426" y="836" type="curve" smooth="yes"/>
      <point x="583" y="836"/>
      <point x="698" y="744"/>
    </contour>
    <contour>
      <point x="-30" y="1198" type="curve"/>
      <point x="-30" y="1274" type="line"/>
      <point x="998" y="1274" type="line"/>
      <point x="998" y="1198" type="line"/>
      <point x="998" y="1198"/>
      <point x="-30" y="1198"/>
    </contour>
    <contour>
      <point x="639" y="373" type="curve"/>
      <point x="572" y="411" type="line"/>
      <point x="692" y="667"/>
      <point x="816" y="768"/>
      <point x="963" y="768" type="curve" smooth="yes"/>
      <point x="1040" y="768"/>
      <point x="1090" y="736"/>
      <point x="1136" y="667" type="curve"/>
      <point x="1085" y="604" type="line"/>
      <point x="1048" y="669"/>
      <point x="1013" y="693"/>
      <point x="968" y="693" type="curve" smooth="yes"/>
      <point x="867" y="693"/>
      <point x="750" y="616"/>
    </contour>
    <component base="jadeva" xOffset="984"/>
    <contour>
      <point x="2156" y="1274" type="move" name="top"/>
    </contour>
  </outline>
</glyph>
<glyph name="laraprehalfdeva" format="1">
  <advance width="938"/>
  <outline>
    <contour>
      <point x="-30" y="1198" type="curve"/>
      <point x="-30" y="1274" type="line"/>
      <point x="968" y="1274" type="line"/>
      <point x="968" y="1198" type="line"/>
      <point x="968" y="1198"/>
      <point x="-30" y="1198"/>
    </contour>
    <contour>
      <point x="845" y="593" type="curve"/>
      <point x="786" y="549" type="line"/>
      <point x="686" y="722"/>
      <point x="564" y="805"/>
      <point x="440" y="805" type="curve" smooth="yes"/>
      <point x="302" y="805"/>
      <point x="214" y="699"/>
      <point x="214" y="569" type="curve" smooth="yes"/>
      <point x="214" y="422"/>
      <point x="290" y="283"/>
      <point x="501" y="94" type="curve"/>
      <point x="440" y="42" type="line"/>
      <point x="241" y="226"/>
      <point x="132" y="395"/>
      <point x="132" y="582" type="curve" smooth="yes"/>
      <point x="132" y="750"/>
      <point x="245" y="886"/>
      <point x="436" y="886" type="curve" smooth="yes"/>
      <point x="593" y="886"/>
      <point x="742" y="776"/>
    </contour>
    <contour>
      <point x="1105" y="801" type="line"/>
      <point x="1145" y="732" type="line"/>
      <point x="618" y="350" type="line"/>
      <point x="562" y="409" type="line"/>
    </contour>
    <contour>
      <point x="1281" y="464" type="line"/>
      <point x="745" y="-19" type="line"/>
      <point x="690" y="38" type="line"/>
      <point x="1229" y="525" type="line"/>
    </contour>
  </outline>
</glyph>
<glyph name="llaprehalfdeva" format="1">
  <advance width="1203"/>
  <outline>
    <contour>
      <point x="1233" y="1198" type="line"/>
      <point x="-30" y="1198" type="line"/>
      <point x="-30" y="1274" type="line"/>
      <point x="1233" y="1274" type="line"/>
    </contour>
    <contour>
      <point x="712" y="532" type="curve" smooth="yes"/>
      <point x="806" y="757"/>
      <point x="915" y="886"/>
      <point x="1071" y="886" type="curve" smooth="yes"/>
      <point x="1281" y="886"/>
      <point x="1407" y="730"/>
      <point x="1407" y="511" type="curve" smooth="yes"/>
      <point x="1407" y="292"/>
      <point x="1263" y="165"/>
      <point x="1092" y="165" type="curve" smooth="yes"/>
      <point x="935" y="165"/>
      <point x="812" y="236"/>
      <point x="667" y="373" type="curve"/>
      <point x="709" y="439" type="line"/>
      <point x="835" y="305"/>
      <point x="975" y="243"/>
      <point x="1086" y="243" type="curve" smooth="yes"/>
      <point x="1229" y="243"/>
      <point x="1330" y="356"/>
      <point x="1330" y="532" type="curve" smooth="yes"/>
      <point x="1330" y="686"/>
      <point x="1217" y="804"/>
      <point x="1086" y="804" type="curve" smooth="yes"/>
      <point x="970" y="804"/>
      <point x="864" y="700"/>
      <point x="789" y="509" type="curve" smooth="yes"/>
      <point x="702" y="286"/>
      <point x="584" y="165"/>
      <point x="420" y="165" type="curve" smooth="yes"/>
      <point x="261" y="165"/>
      <point x="99" y="287"/>
      <point x="99" y="526" type="curve" smooth="yes"/>
      <point x="99" y="734"/>
      <point x="239" y="886"/>
      <point x="420" y="886" type="curve" smooth="yes"/>
      <point x="584" y="886"/>
      <point x="708" y="802"/>
      <point x="836" y="673" type="curve"/>
      <point x="804" y="597" type="line"/>
      <point x="659" y="747"/>
      <point x="545" y="804"/>
      <point x="430" y="804" type="curve" smooth="yes"/>
      <point x="286" y="804"/>
      <point x="181" y="695"/>
      <point x="181" y="507" type="curve" smooth="yes"/>
      <point x="181" y="340"/>
      <point x="295" y="243"/>
      <point x="405" y="243" type="curve" smooth="yes"/>
      <point x="532" y="243"/>
      <point x="631" y="339"/>
    </contour>
  </outline>
</glyph>
<glyph name="maraprehalfdeva" format="1">
  <advance width="643"/>
  <outline>
    <contour>
      <point x="881" y="549" type="line"/>
      <point x="290" y="-12" type="line"/>
      <point x="233" y="47" type="line"/>
      <point x="829" y="611" type="line"/>
    </contour>
    <contour>
      <point x="-30" y="1198" type="curve"/>
      <point x="-30" y="1274" type="line"/>
      <point x="673" y="1274" type="line"/>
      <point x="673" y="1198" type="line"/>
      <point x="673" y="1198"/>
      <point x="-30" y="1198"/>
    </contour>
    <contour>
      <point x="121" y="609" type="curve" smooth="yes"/>
      <point x="121" y="631"/>
      <point x="133" y="645"/>
      <point x="167" y="645" type="curve" smooth="yes"/>
      <point x="272" y="645" type="line"/>
      <point x="245" y="615" type="line"/>
      <point x="245" y="1238" type="line"/>
      <point x="334" y="1238" type="line"/>
      <point x="334" y="621" type="line"/>
      <point x="302" y="645" type="line"/>
      <point x="834" y="645" type="line"/>
      <point x="864" y="569" type="line"/>
      <point x="304" y="569" type="line"/>
      <point x="334" y="590" type="line"/>
      <point x="334" y="453" type="line" smooth="yes"/>
      <point x="334" y="427"/>
      <point x="324" y="413"/>
      <point x="304" y="413" type="curve" smooth="yes"/>
      <point x="283" y="413"/>
      <point x="248" y="435"/>
      <point x="208" y="475" type="curve" smooth="yes"/>
      <point x="156" y="527"/>
      <point x="121" y="582"/>
    </contour>
  </outline>
</glyph>
<glyph name="naraprehalfdeva" format="1">
  <advance width="614"/>
  <outline>
    <contour>
      <point x="849" y="492" type="line"/>
      <point x="336" y="-12" type="line"/>
      <point x="282" y="47" type="line"/>
      <point x="800" y="549" type="line"/>
    </contour>
    <component base="naprehalfdeva"/>
  </outline>
</glyph>
<glyph name="ngagadeva" format="1">
  <advance width="1213"/>
  <outline>
    <contour>
      <point x="206" y="-26" type="curve" smooth="yes"/>
      <point x="206" y="-4"/>
      <point x="218" y="9"/>
      <point x="252" y="9" type="curve" smooth="yes"/>
      <point x="353" y="9" type="line"/>
      <point x="331" y="-20" type="line"/>
      <point x="331" y="293" type="line"/>
      <point x="414" y="293" type="line"/>
      <point x="414" y="293"/>
      <point x="414" y="-182"/>
      <point x="414" y="-182" type="curve" smooth="yes"/>
      <point x="414" y="-208"/>
      <point x="404" y="-222"/>
      <point x="384" y="-222" type="curve" smooth="yes"/>
      <point x="363" y="-222"/>
      <point x="333" y="-200"/>
      <point x="293" y="-160" type="curve" smooth="yes"/>
      <point x="241" y="-108"/>
      <point x="206" y="-53"/>
    </contour>
    <contour>
      <point x="745" y="291" type="line"/>
      <point x="828" y="291" type="line"/>
      <point x="828" y="-415" type="line"/>
      <point x="745" y="-415" type="line"/>
    </contour>
    <contour>
      <point x="772" y="1238" type="line"/>
      <point x="861" y="1238" type="line"/>
      <point x="861" y="905" type="line"/>
      <point x="475" y="905" type="line" smooth="yes"/>
      <point x="331" y="905"/>
      <point x="277" y="852"/>
      <point x="277" y="779" type="curve" smooth="yes"/>
      <point x="277" y="715"/>
      <point x="335" y="662"/>
      <point x="435" y="626" type="curve"/>
      <point x="374" y="626" type="line"/>
      <point x="465" y="668"/>
      <point x="559" y="693"/>
      <point x="666" y="693" type="curve" smooth="yes"/>
      <point x="842" y="693"/>
      <point x="967" y="608"/>
      <point x="967" y="458" type="curve" smooth="yes"/>
      <point x="967" y="301"/>
      <point x="812" y="221"/>
      <point x="626" y="221" type="curve" smooth="yes"/>
      <point x="486" y="221"/>
      <point x="329" y="256"/>
      <point x="150" y="364" type="curve"/>
      <point x="174" y="444" type="line"/>
      <point x="333" y="338"/>
      <point x="494" y="296"/>
      <point x="616" y="296" type="curve" smooth="yes"/>
      <point x="776" y="296"/>
      <point x="889" y="361"/>
      <point x="889" y="462" type="curve" smooth="yes"/>
      <point x="889" y="556"/>
      <point x="808" y="614"/>
      <point x="662" y="614" type="curve" smooth="yes"/>
      <point x="564" y="614"/>
      <point x="482" y="586"/>
      <point x="413" y="550" type="curve"/>
      <point x="408" y="550" type="line"/>
      <point x="260" y="619"/>
      <point x="198" y="687"/>
      <point x="198" y="792" type="curve" smooth="yes"/>
      <point x="198" y="893"/>
      <point x="276" y="981"/>
      <point x="474" y="981" type="curve" smooth="yes"/>
      <point x="811" y="981" type="line"/>
      <point x="772" y="942" type="line"/>
    </contour>
    <contour>
      <point x="1030" y="870" type="curve" smooth="yes"/>
      <point x="1079" y="870"/>
      <point x="1104" y="841"/>
      <point x="1104" y="782" type="curve" smooth="yes"/>
      <point x="1104" y="724"/>
      <point x="1079" y="694"/>
      <point x="1030" y="694" type="curve" smooth="yes"/>
      <point x="982" y="694"/>
      <point x="958" y="724"/>
      <point x="958" y="782" type="curve" smooth="yes"/>
      <point x="958" y="841"/>
      <point x="982" y="870"/>
    </contour>
    <contour>
      <point x="1243" y="1198" type="line"/>
      <point x="-30" y="1198" type="line"/>
      <point x="-30" y="1274" type="line"/>
      <point x="1243" y="1274" type="line"/>
    </contour>
    <contour>
      <point x="772" y="1274" type="move" name="top"/>
    </contour>
    <contour>
      <point x="531" y="-460" type="move" name="btm"/>
    </contour>
  </outline>
</glyph>
<glyph name="onedevaNEP" format="1">
  <advance width="784.0"/>
  <outline>
    <contour>
      <point x="555" y="963" type="line" smooth="yes"/>
      <point x="555" y="1115"/>
      <point x="475" y="1201"/>
      <point x="347" y="1201" type="curve" smooth="yes"/>
      <point x="220" y="1201"/>
      <point x="144" y="1110"/>
      <point x="144" y="1000" type="curve" smooth="yes"/>
      <point x="144" y="888"/>
      <point x="228" y="797"/>
      <point x="369" y="797" type="curve" smooth="yes"/>
      <point x="463" y="797"/>
      <point x="533" y="825"/>
      <point x="599" y="883" type="curve"/>
      <point x="617" y="811" type="line"/>
      <point x="559" y="761"/>
      <point x="478" y="721"/>
      <point x="373" y="721" type="curve" smooth="yes"/>
      <point x="183" y="721"/>
      <point x="63" y="847"/>
      <point x="64" y="1008" type="curve" smooth="yes"/>
      <point x="65" y="1156"/>
      <point x="175" y="1279"/>
      <point x="341" y="1279" type="curve" smooth="yes"/>
      <point x="532" y="1279"/>
      <point x="640" y="1155"/>
      <point x="640" y="959" type="curve" smooth="yes"/>
      <point x="640" y="129" type="line"/>
      <point x="555" y="129" type="line"/>
    </contour>
  </outline>
</glyph>
<glyph name="phaprehalfdeva" format="1">
  <advance width="1159"/>
  <outline>
    <contour>
      <point x="827" y="558" type="curve"/>
      <point x="806" y="646" type="line"/>
      <point x="866" y="709"/>
      <point x="973" y="764"/>
      <point x="1082" y="764" type="curve" smooth="yes"/>
      <point x="1200" y="764"/>
      <point x="1295" y="728"/>
      <point x="1389" y="645" type="curve"/>
      <point x="1361" y="572" type="line"/>
      <point x="1278" y="646"/>
      <point x="1189" y="684"/>
      <point x="1094" y="684" type="curve" smooth="yes"/>
      <point x="991" y="684"/>
      <point x="895" y="634"/>
    </contour>
    <contour>
      <point x="257" y="1240" type="line"/>
      <point x="257" y="794" type="line" smooth="yes"/>
      <point x="257" y="624"/>
      <point x="341" y="549"/>
      <point x="495" y="549" type="curve" smooth="yes"/>
      <point x="593" y="549"/>
      <point x="684" y="575"/>
      <point x="776" y="631" type="curve"/>
      <point x="776" y="532" type="line"/>
      <point x="693" y="492"/>
      <point x="603" y="468"/>
      <point x="515" y="468" type="curve" smooth="yes"/>
      <point x="303" y="468"/>
      <point x="168" y="575"/>
      <point x="168" y="812" type="curve" smooth="yes"/>
      <point x="168" y="1240" type="line"/>
    </contour>
    <contour>
      <point x="-30" y="1198" type="curve"/>
      <point x="-30" y="1274" type="line"/>
      <point x="1189" y="1274" type="line"/>
      <point x="1189" y="1198" type="line"/>
      <point x="1189" y="1198"/>
      <point x="-30" y="1198"/>
    </contour>
    <contour>
      <point x="743" y="1226" type="line"/>
      <point x="832" y="1226" type="line"/>
      <point x="832" y="0" type="line"/>
      <point x="743" y="0" type="line"/>
    </contour>
  </outline>
</glyph>
<glyph name="rahalantdeva" format="1">
  <advance width="818"/>
  <outline>
    <component base="radeva"/>
    <component base="viramadeva" xOffset="593" yOffset="30"/>
    <contour>
      <point x="369.0" y="-23.0" type="move" name="btm"/>
    </contour>
    <contour>
      <point x="517.0" y="1274.0" type="move" name="top"/>
    </contour>
  </outline>
</glyph>
<glyph name="rephanusvaradeva" format="1">
  <advance width="-1"/>
  <outline>
    <contour>
      <point x="-167" y="1565" type="curve" smooth="yes"/>
      <point x="-126" y="1565"/>
      <point x="-101" y="1535"/>
      <point x="-101" y="1485" type="curve" smooth="yes"/>
      <point x="-101" y="1436"/>
      <point x="-126" y="1405"/>
      <point x="-167" y="1405" type="curve" smooth="yes"/>
      <point x="-207" y="1405"/>
      <point x="-231" y="1436"/>
      <point x="-231" y="1485" type="curve" smooth="yes"/>
      <point x="-231" y="1535"/>
      <point x="-207" y="1565"/>
    </contour>
    <contour>
      <point x="-340" y="1244" type="line"/>
      <point x="-398" y="1344"/>
      <point x="-443" y="1454"/>
      <point x="-443" y="1554" type="curve" smooth="yes"/>
      <point x="-443" y="1666"/>
      <point x="-363" y="1761"/>
      <point x="-221" y="1761" type="curve" smooth="yes"/>
      <point x="-157" y="1761"/>
      <point x="-121" y="1754"/>
      <point x="-78" y="1743" type="curve"/>
      <point x="-86" y="1670" type="line"/>
      <point x="-126" y="1679"/>
      <point x="-159" y="1684"/>
      <point x="-200" y="1684" type="curve" smooth="yes"/>
      <point x="-309" y="1684"/>
      <point x="-358" y="1622"/>
      <point x="-358" y="1535" type="curve" smooth="yes"/>
      <point x="-358" y="1444"/>
      <point x="-316" y="1354"/>
      <point x="-250" y="1244" type="curve"/>
    </contour>
    <contour>
      <point x="-342" y="1274" type="move" name="_top"/>
    </contour>
  </outline>
</glyph>
<glyph name="rha2deva" format="1">
  <advance width="1095"/>
  <outline>
    <contour>
      <point x="1125" y="1198" type="line"/>
      <point x="-30" y="1198" type="line"/>
      <point x="-30" y="1274" type="line"/>
      <point x="1125" y="1274" type="line"/>
    </contour>
    <contour>
      <point x="743" y="1228" type="line"/>
      <point x="832" y="1228" type="line"/>
      <point x="832" y="810" type="line"/>
      <point x="610" y="810" type="line" smooth="yes"/>
      <point x="364" y="810"/>
      <point x="225" y="707"/>
      <point x="225" y="507" type="curve" smooth="yes"/>
      <point x="225" y="324"/>
      <point x="401" y="164"/>
      <point x="643" y="164" type="curve" smooth="yes"/>
      <point x="849" y="164"/>
      <point x="923" y="243"/>
      <point x="923" y="328" type="curve" smooth="yes"/>
      <point x="923" y="398"/>
      <point x="867" y="460"/>
      <point x="770" y="460" type="curve" smooth="yes"/>
      <point x="663" y="460"/>
      <point x="609" y="393"/>
      <point x="609" y="301" type="curve" smooth="yes"/>
      <point x="609" y="242"/>
      <point x="627" y="194"/>
      <point x="665" y="145" type="curve"/>
      <point x="586" y="139" type="line"/>
      <point x="551" y="191"/>
      <point x="531" y="252"/>
      <point x="531" y="316" type="curve" smooth="yes"/>
      <point x="531" y="440"/>
      <point x="615" y="537"/>
      <point x="761" y="537" type="curve" smooth="yes"/>
      <point x="904" y="537"/>
      <point x="998" y="439"/>
      <point x="998" y="318" type="curve" smooth="yes"/>
      <point x="998" y="196"/>
      <point x="876" y="91"/>
      <point x="668" y="91" type="curve" smooth="yes"/>
      <point x="342" y="91"/>
      <point x="140" y="296"/>
      <point x="140" y="535" type="curve" smooth="yes"/>
      <point x="140" y="752"/>
      <point x="310" y="886"/>
      <point x="560" y="886" type="curve" smooth="yes"/>
      <point x="784" y="886" type="line"/>
      <point x="743" y="852" type="line"/>
    </contour>
    <component base="nuktadeva" xOffset="877" yOffset="315"/>
    <contour>
      <point x="572.0" y="95.0" type="move" name="btm"/>
    </contour>
    <contour>
      <point x="743.0" y="1274.0" type="move" name="top"/>
    </contour>
  </outline>
</glyph>
<glyph name="rvocalicvowelsignlowdeva" format="1">
  <advance width="0"/>
  <outline>
    <contour>
      <point x="-178" y="-345" type="line"/>
      <point x="-243" y="-373"/>
      <point x="-294" y="-385"/>
      <point x="-363" y="-385" type="curve" smooth="yes"/>
      <point x="-498" y="-385"/>
      <point x="-594" y="-306"/>
      <point x="-594" y="-186" type="curve" smooth="yes"/>
      <point x="-594" y="-85"/>
      <point x="-507" y="10"/>
      <point x="-340" y="10" type="curve" smooth="yes"/>
      <point x="-313" y="10"/>
      <point x="-272" y="10"/>
      <point x="-250" y="10" type="curve"/>
      <point x="-250" y="-63" type="line"/>
      <point x="-270" y="-63"/>
      <point x="-307" y="-63"/>
      <point x="-330" y="-63" type="curve" smooth="yes"/>
      <point x="-469" y="-63"/>
      <point x="-519" y="-125"/>
      <point x="-519" y="-193" type="curve" smooth="yes"/>
      <point x="-519" y="-259"/>
      <point x="-468" y="-313"/>
      <point x="-363" y="-313" type="curve" smooth="yes"/>
      <point x="-306" y="-313"/>
      <point x="-266" y="-306"/>
      <point x="-194" y="-274" type="curve"/>
    </contour>
    <contour>
      <point x="-339" y="0" type="move" name="_btm"/>
    </contour>
  </outline>
</glyph>
<glyph name="shaladeva" format="1">
  <advance width="2124"/>
  <outline>
    <contour>
      <point x="149" y="521" type="line"/>
      <point x="104" y="589" type="line"/>
      <point x="386" y="759" type="line" smooth="yes"/>
      <point x="577" y="874"/>
      <point x="651" y="957"/>
      <point x="651" y="1060" type="curve" smooth="yes"/>
      <point x="651" y="1155"/>
      <point x="573" y="1226"/>
      <point x="473" y="1226" type="curve" smooth="yes"/>
      <point x="362" y="1226"/>
      <point x="291" y="1158"/>
      <point x="291" y="1058" type="curve" smooth="yes"/>
      <point x="291" y="899"/>
      <point x="510" y="756"/>
      <point x="985" y="756" type="curve"/>
      <point x="960" y="682" type="line"/>
      <point x="428" y="682"/>
      <point x="212" y="864"/>
      <point x="212" y="1073" type="curve" smooth="yes"/>
      <point x="212" y="1200"/>
      <point x="314" y="1303"/>
      <point x="463" y="1303" type="curve" smooth="yes"/>
      <point x="630" y="1303"/>
      <point x="728" y="1192"/>
      <point x="728" y="1055" type="curve" smooth="yes"/>
      <point x="728" y="920"/>
      <point x="627" y="811"/>
      <point x="442" y="699" type="curve" smooth="yes"/>
    </contour>
    <contour>
      <point x="1785" y="1226" type="line"/>
      <point x="1874" y="1226" type="line"/>
      <point x="1874" y="0" type="line"/>
      <point x="1785" y="0" type="line"/>
    </contour>
    <contour>
      <point x="828" y="1198" type="curve"/>
      <point x="828" y="1274" type="line"/>
      <point x="2154" y="1274" type="line"/>
      <point x="2154" y="1198" type="line"/>
      <point x="2154" y="1198"/>
      <point x="828" y="1198"/>
    </contour>
    <contour>
      <point x="1583" y="677" type="curve"/>
      <point x="1529" y="617" type="line"/>
      <point x="1411" y="748"/>
      <point x="1304" y="805"/>
      <point x="1187" y="805" type="curve" smooth="yes"/>
      <point x="1049" y="805"/>
      <point x="952" y="699"/>
      <point x="952" y="569" type="curve" smooth="yes"/>
      <point x="952" y="412"/>
      <point x="1028" y="283"/>
      <point x="1239" y="94" type="curve"/>
      <point x="1178" y="42" type="line"/>
      <point x="979" y="226"/>
      <point x="870" y="385"/>
      <point x="870" y="582" type="curve" smooth="yes"/>
      <point x="870" y="750"/>
      <point x="992" y="886"/>
      <point x="1183" y="886" type="curve" smooth="yes"/>
      <point x="1327" y="886"/>
      <point x="1451" y="821"/>
    </contour>
    <contour>
      <point x="1813" y="920" type="line"/>
      <point x="1813" y="805" type="line"/>
      <point x="1366" y="380" type="line"/>
      <point x="1310" y="439" type="line"/>
    </contour>
    <contour>
      <point x="1785" y="1274" type="move" name="top"/>
    </contour>
  </outline>
</glyph>
<glyph name="shaladevaMAR" format="1">
  <advance width="2251"/>
  <outline>
    <contour>
      <point x="149" y="521" type="line"/>
      <point x="104" y="589" type="line"/>
      <point x="386" y="759" type="line" smooth="yes"/>
      <point x="577" y="874"/>
      <point x="651" y="957"/>
      <point x="651" y="1060" type="curve" smooth="yes"/>
      <point x="651" y="1155"/>
      <point x="573" y="1226"/>
      <point x="473" y="1226" type="curve" smooth="yes"/>
      <point x="362" y="1226"/>
      <point x="291" y="1158"/>
      <point x="291" y="1058" type="curve" smooth="yes"/>
      <point x="291" y="902"/>
      <point x="505" y="750"/>
      <point x="997" y="750" type="curve" smooth="yes"/>
      <point x="1029" y="750" type="line"/>
      <point x="1025" y="674" type="line"/>
      <point x="1025" y="674"/>
      <point x="1005" y="674"/>
      <point x="1005" y="674" type="curve"/>
      <point x="426" y="674"/>
      <point x="212" y="867"/>
      <point x="212" y="1073" type="curve" smooth="yes"/>
      <point x="212" y="1200"/>
      <point x="314" y="1303"/>
      <point x="463" y="1303" type="curve" smooth="yes"/>
      <point x="630" y="1303"/>
      <point x="728" y="1192"/>
      <point x="728" y="1055" type="curve" smooth="yes"/>
      <point x="728" y="920"/>
      <point x="627" y="811"/>
      <point x="442" y="699" type="curve" smooth="yes"/>
    </contour>
    <contour>
      <point x="1625" y="687" type="curve"/>
      <point x="1575" y="627" type="line"/>
      <point x="1462" y="748"/>
      <point x="1356" y="805"/>
      <point x="1239" y="805" type="curve" smooth="yes"/>
      <point x="1101" y="805"/>
      <point x="1004" y="699"/>
      <point x="1004" y="569" type="curve" smooth="yes"/>
      <point x="1004" y="412"/>
      <point x="1080" y="283"/>
      <point x="1291" y="94" type="curve"/>
      <point x="1230" y="42" type="line"/>
      <point x="1031" y="226"/>
      <point x="922" y="385"/>
      <point x="922" y="582" type="curve" smooth="yes"/>
      <point x="922" y="750"/>
      <point x="1044" y="886"/>
      <point x="1235" y="886" type="curve" smooth="yes"/>
      <point x="1379" y="886"/>
      <point x="1501" y="821"/>
    </contour>
    <contour>
      <point x="1440" y="412" type="line"/>
      <point x="1488" y="707"/>
      <point x="1639" y="886"/>
      <point x="1837" y="886" type="curve" smooth="yes"/>
      <point x="2019" y="886"/>
      <point x="2139" y="751"/>
      <point x="2139" y="573" type="curve" smooth="yes"/>
      <point x="2139" y="403"/>
      <point x="2054" y="242"/>
      <point x="1859" y="77" type="curve"/>
      <point x="1801" y="131" type="line"/>
      <point x="1977" y="278"/>
      <point x="2061" y="432"/>
      <point x="2061" y="576" type="curve" smooth="yes"/>
      <point x="2061" y="710"/>
      <point x="1975" y="804"/>
      <point x="1845" y="804" type="curve" smooth="yes"/>
      <point x="1697" y="804"/>
      <point x="1562" y="672"/>
      <point x="1513" y="382" type="curve"/>
    </contour>
    <contour>
      <point x="1911" y="1226" type="line"/>
      <point x="2000" y="1226" type="line"/>
      <point x="2000" y="815" type="line"/>
      <point x="1911" y="815" type="line"/>
    </contour>
    <contour>
      <point x="940" y="1198" type="curve"/>
      <point x="940" y="1274" type="line"/>
      <point x="2281" y="1274" type="line"/>
      <point x="2281" y="1198" type="line"/>
      <point x="2281" y="1198"/>
      <point x="940" y="1198"/>
    </contour>
    <contour>
      <point x="1521.0" y="20.0" type="move" name="btm"/>
    </contour>
    <contour>
      <point x="1816.0" y="1274.0" type="move" name="top"/>
    </contour>
  </outline>
</glyph>
<glyph name="shanadeva" format="1">
  <advance width="1390"/>
  <outline>
    <contour>
      <point x="149" y="521" type="line"/>
      <point x="104" y="589" type="line"/>
      <point x="386" y="759" type="line" smooth="yes"/>
      <point x="577" y="874"/>
      <point x="651" y="957"/>
      <point x="651" y="1060" type="curve" smooth="yes"/>
      <point x="651" y="1155"/>
      <point x="573" y="1226"/>
      <point x="473" y="1226" type="curve" smooth="yes"/>
      <point x="362" y="1226"/>
      <point x="291" y="1158"/>
      <point x="291" y="1058" type="curve" smooth="yes"/>
      <point x="291" y="899"/>
      <point x="486" y="749"/>
      <point x="1105" y="750" type="curve"/>
      <point x="1080" y="673" type="line"/>
      <point x="413" y="676"/>
      <point x="212" y="864"/>
      <point x="212" y="1073" type="curve" smooth="yes"/>
      <point x="212" y="1200"/>
      <point x="314" y="1303"/>
      <point x="463" y="1303" type="curve" smooth="yes"/>
      <point x="630" y="1303"/>
      <point x="728" y="1192"/>
      <point x="728" y="1055" type="curve" smooth="yes"/>
      <point x="728" y="920"/>
      <point x="627" y="811"/>
      <point x="442" y="699" type="curve" smooth="yes"/>
    </contour>
    <contour>
      <point x="1064" y="668" type="line"/>
      <point x="1108" y="606" type="line"/>
      <point x="537" y="186" type="line"/>
      <point x="547" y="259" type="line"/>
      <point x="698" y="48" type="line" smooth="yes"/>
      <point x="708" y="35"/>
      <point x="711" y="26"/>
      <point x="711" y="16" type="curve" smooth="yes"/>
      <point x="711" y="3"/>
      <point x="699" y="-11"/>
      <point x="682" y="-11" type="curve" smooth="yes"/>
      <point x="655" y="-11"/>
      <point x="583" y="29"/>
      <point x="503" y="109" type="curve" smooth="yes"/>
      <point x="459" y="153"/>
      <point x="446" y="175"/>
      <point x="446" y="193" type="curve" smooth="yes"/>
      <point x="446" y="209"/>
      <point x="455" y="225"/>
      <point x="473" y="238" type="curve" smooth="yes"/>
    </contour>
    <contour>
      <point x="1054" y="1226" type="line"/>
      <point x="1143" y="1226" type="line"/>
      <point x="1143" y="0" type="line"/>
      <point x="1054" y="0" type="line"/>
    </contour>
    <contour>
      <point x="1420" y="1198" type="line"/>
      <point x="846" y="1198" type="line"/>
      <point x="846" y="1274" type="line"/>
      <point x="1420" y="1274" type="line"/>
    </contour>
    <contour>
      <point x="1054" y="1274" type="move" name="top"/>
    </contour>
  </outline>
</glyph>
<glyph name="shavadeva" format="1">
  <advance width="1390"/>
  <outline>
    <contour>
      <point x="149" y="521" type="line"/>
      <point x="104" y="589" type="line"/>
      <point x="386" y="759" type="line" smooth="yes"/>
      <point x="577" y="874"/>
      <point x="651" y="957"/>
      <point x="651" y="1060" type="curve" smooth="yes"/>
      <point x="651" y="1155"/>
      <point x="573" y="1226"/>
      <point x="473" y="1226" type="curve" smooth="yes"/>
      <point x="362" y="1226"/>
      <point x="291" y="1158"/>
      <point x="291" y="1058" type="curve" smooth="yes"/>
      <point x="291" y="899"/>
      <point x="486" y="749"/>
      <point x="1105" y="750" type="curve"/>
      <point x="1080" y="673" type="line"/>
      <point x="414" y="673"/>
      <point x="212" y="866"/>
      <point x="212" y="1073" type="curve" smooth="yes"/>
      <point x="212" y="1200"/>
      <point x="314" y="1303"/>
      <point x="463" y="1303" type="curve" smooth="yes"/>
      <point x="630" y="1303"/>
      <point x="728" y="1192"/>
      <point x="728" y="1055" type="curve" smooth="yes"/>
      <point x="728" y="920"/>
      <point x="627" y="811"/>
      <point x="442" y="699" type="curve" smooth="yes"/>
    </contour>
    <contour>
      <point x="1054" y="1226" type="line"/>
      <point x="1143" y="1226" type="line"/>
      <point x="1143" y="-67" type="line"/>
      <point x="1054" y="-67" type="line"/>
    </contour>
    <contour>
      <point x="1420" y="1198" type="line"/>
      <point x="846" y="1198" type="line"/>
      <point x="846" y="1274" type="line"/>
      <point x="1420" y="1274" type="line"/>
    </contour>
    <contour>
      <point x="1067" y="255" type="curve"/>
      <point x="1067" y="152" type="line"/>
      <point x="1004" y="94"/>
      <point x="916" y="53"/>
      <point x="826" y="53" type="curve" smooth="yes"/>
      <point x="655" y="53"/>
      <point x="533" y="164"/>
      <point x="533" y="327" type="curve" smooth="yes"/>
      <point x="533" y="449"/>
      <point x="633" y="551"/>
      <point x="798" y="551" type="curve" smooth="yes"/>
      <point x="900" y="551"/>
      <point x="1012" y="522"/>
      <point x="1091" y="475" type="curve"/>
      <point x="1088" y="396" type="line"/>
      <point x="1000" y="448"/>
      <point x="904" y="476"/>
      <point x="821" y="476" type="curve" smooth="yes"/>
      <point x="682" y="476"/>
      <point x="609" y="406"/>
      <point x="609" y="311" type="curve" smooth="yes"/>
      <point x="609" y="197"/>
      <point x="701" y="128"/>
      <point x="806" y="128" type="curve" smooth="yes"/>
      <point x="906" y="128"/>
      <point x="991" y="169"/>
    </contour>
    <contour>
      <point x="1054" y="1274" type="move" name="top"/>
    </contour>
    <contour>
      <point x="1054" y="-67" type="move" name="btm"/>
    </contour>
  </outline>
</glyph>
<glyph name="ssaprehalfdeva" format="1">
  <advance width="598"/>
  <outline>
    <contour>
      <point x="808" y="569" type="line"/>
      <point x="744" y="522" type="line"/>
      <point x="205" y="1181" type="line"/>
      <point x="269" y="1228" type="line"/>
    </contour>
    <contour>
      <point x="628" y="1198" type="line"/>
      <point x="-30" y="1198" type="line"/>
      <point x="-30" y="1274" type="line"/>
      <point x="628" y="1274" type="line"/>
    </contour>
    <contour>
      <point x="257" y="1240" type="line"/>
      <point x="257" y="755" type="line" smooth="yes"/>
      <point x="257" y="580"/>
      <point x="345" y="510"/>
      <point x="497" y="510" type="curve" smooth="yes"/>
      <point x="593" y="510"/>
      <point x="707" y="544"/>
      <point x="796" y="598" type="curve"/>
      <point x="834" y="526" type="line"/>
      <point x="758" y="476"/>
      <point x="633" y="430"/>
      <point x="505" y="430" type="curve" smooth="yes"/>
      <point x="307" y="430"/>
      <point x="168" y="534"/>
      <point x="168" y="772" type="curve" smooth="yes"/>
      <point x="168" y="1240" type="line"/>
    </contour>
  </outline>
</glyph>
<glyph name="ssattadeva" format="1">
  <advance width="1151"/>
  <outline>
    <contour>
      <point x="821" y="713" type="line"/>
      <point x="774" y="648" type="line"/>
      <point x="271" y="1216" type="line"/>
      <point x="335" y="1263" type="line"/>
    </contour>
    <contour>
      <point x="1181" y="1198" type="line"/>
      <point x="-30" y="1198" type="line"/>
      <point x="-30" y="1274" type="line"/>
      <point x="1181" y="1274" type="line"/>
    </contour>
    <contour>
      <point x="831" y="890" type="curve" smooth="yes"/>
      <point x="831" y="1226" type="line"/>
      <point x="920" y="1226" type="line"/>
      <point x="920" y="882" type="line" smooth="yes"/>
      <point x="920" y="691"/>
      <point x="786" y="586"/>
      <point x="559" y="586" type="curve" smooth="yes"/>
      <point x="350" y="586"/>
      <point x="198" y="696"/>
      <point x="198" y="906" type="curve" smooth="yes"/>
      <point x="198" y="1240" type="line"/>
      <point x="287" y="1240" type="line"/>
      <point x="287" y="884" type="line" smooth="yes"/>
      <point x="287" y="729"/>
      <point x="400" y="670"/>
      <point x="544" y="670" type="curve" smooth="yes"/>
      <point x="720" y="670"/>
      <point x="831" y="724"/>
    </contour>
    <contour>
      <point x="560" y="586" type="curve" smooth="yes"/>
      <point x="422" y="586"/>
      <point x="277" y="496"/>
      <point x="277" y="330" type="curve" smooth="yes"/>
      <point x="277" y="189"/>
      <point x="398" y="80"/>
      <point x="591" y="80" type="curve" smooth="yes"/>
      <point x="714" y="80"/>
      <point x="797" y="101"/>
      <point x="906" y="161" type="curve"/>
      <point x="930" y="82" type="line"/>
      <point x="810" y="19"/>
      <point x="728" y="0"/>
      <point x="597" y="0" type="curve" smooth="yes"/>
      <point x="351" y="0"/>
      <point x="191" y="142"/>
      <point x="191" y="346" type="curve" smooth="yes"/>
      <point x="191" y="521"/>
      <point x="341" y="662"/>
      <point x="552" y="662" type="curve" smooth="yes"/>
      <point x="552" y="662"/>
      <point x="560" y="586"/>
    </contour>
    <contour>
      <point x="551" y="0" type="move" name="btm"/>
    </contour>
    <contour>
      <point x="831" y="1274" type="move" name="top"/>
    </contour>
  </outline>
</glyph>
<glyph name="tanadeva" format="1">
  <advance width="1788"/>
  <outline>
    <contour>
      <point x="858" y="771" type="line"/>
      <point x="849" y="695" type="line"/>
      <point x="528" y="695" type="line" smooth="yes"/>
      <point x="303" y="695"/>
      <point x="225" y="611"/>
      <point x="225" y="484" type="curve" smooth="yes"/>
      <point x="225" y="402"/>
      <point x="256" y="286"/>
      <point x="442" y="32" type="curve"/>
      <point x="367" y="-2" type="line"/>
      <point x="185" y="247"/>
      <point x="141" y="409"/>
      <point x="141" y="494" type="curve" smooth="yes"/>
      <point x="141" y="657"/>
      <point x="247" y="771"/>
      <point x="495" y="771" type="curve" smooth="yes"/>
    </contour>
    <contour>
      <point x="-30" y="1198" type="curve"/>
      <point x="-30" y="1274" type="line"/>
      <point x="684" y="1274" type="line"/>
      <point x="684" y="1198" type="line"/>
      <point x="684" y="1198"/>
      <point x="-30" y="1198"/>
    </contour>
    <component base="nadeva" xOffset="631"/>
    <contour>
      <point x="1449" y="1274" type="move" name="top"/>
    </contour>
  </outline>
</glyph>
<glyph name="taprehalfdeva" format="1">
  <advance width="593"/>
  <outline>
    <contour>
      <point x="837" y="836" type="line"/>
      <point x="828" y="760" type="line"/>
      <point x="541" y="760" type="line" smooth="yes"/>
      <point x="320" y="760"/>
      <point x="228" y="656"/>
      <point x="228" y="529" type="curve" smooth="yes"/>
      <point x="228" y="407"/>
      <point x="265" y="286"/>
      <point x="451" y="32" type="curve"/>
      <point x="376" y="-2" type="line"/>
      <point x="194" y="247"/>
      <point x="144" y="414"/>
      <point x="144" y="539" type="curve" smooth="yes"/>
      <point x="144" y="702"/>
      <point x="260" y="836"/>
      <point x="508" y="836" type="curve" smooth="yes"/>
    </contour>
    <contour>
      <point x="-30" y="1198" type="curve"/>
      <point x="-30" y="1274" type="line"/>
      <point x="623" y="1274" type="line"/>
      <point x="623" y="1198" type="line"/>
      <point x="623" y="1198"/>
      <point x="-30" y="1198"/>
    </contour>
  </outline>
</glyph>
<glyph name="tataprehalfdeva" format="1">
  <advance width="721"/>
  <outline>
    <contour>
      <point x="751" y="1198" type="line"/>
      <point x="751" y="1198"/>
      <point x="-30" y="1198"/>
      <point x="-30" y="1198" type="curve"/>
      <point x="-30" y="1274" type="line"/>
      <point x="751" y="1274" type="line"/>
    </contour>
    <contour>
      <point x="684" y="760" type="line"/>
      <point x="684" y="760"/>
      <point x="35" y="760"/>
      <point x="35" y="760" type="curve"/>
      <point x="35" y="836" type="line"/>
      <point x="684" y="836" type="line"/>
    </contour>
    <contour>
      <point x="965" y="836" type="line"/>
      <point x="956" y="760" type="line"/>
      <point x="669" y="760" type="line" smooth="yes"/>
      <point x="448" y="760"/>
      <point x="356" y="656"/>
      <point x="356" y="529" type="curve" smooth="yes"/>
      <point x="356" y="407"/>
      <point x="393" y="286"/>
      <point x="579" y="32" type="curve"/>
      <point x="504" y="-2" type="line"/>
      <point x="322" y="247"/>
      <point x="272" y="414"/>
      <point x="272" y="539" type="curve" smooth="yes"/>
      <point x="272" y="702"/>
      <point x="388" y="836"/>
      <point x="636" y="836" type="curve" smooth="yes"/>
    </contour>
  </outline>
</glyph>
<glyph name="tathadeva" format="1">
  <advance width="1797"/>
  <outline>
    <contour>
      <point x="804" y="681" type="curve"/>
      <point x="754" y="616" type="line"/>
      <point x="685" y="682"/>
      <point x="584" y="720"/>
      <point x="470" y="720" type="curve" smooth="yes"/>
      <point x="303" y="720"/>
      <point x="227" y="628"/>
      <point x="227" y="503" type="curve" smooth="yes"/>
      <point x="227" y="385"/>
      <point x="292" y="245"/>
      <point x="449" y="32" type="curve"/>
      <point x="374" y="-2" type="line"/>
      <point x="217" y="209"/>
      <point x="143" y="390"/>
      <point x="143" y="515" type="curve" smooth="yes"/>
      <point x="143" y="678"/>
      <point x="258" y="798"/>
      <point x="455" y="798" type="curve" smooth="yes"/>
      <point x="597" y="798"/>
      <point x="718" y="750"/>
    </contour>
    <contour>
      <point x="-30" y="1198" type="curve"/>
      <point x="-30" y="1274" type="line"/>
      <point x="582" y="1274" type="line"/>
      <point x="582" y="1198" type="line"/>
      <point x="582" y="1198"/>
      <point x="-30" y="1198"/>
    </contour>
    <component base="thadeva" xOffset="535"/>
    <contour>
      <point x="1458" y="1274" type="move" name="top"/>
    </contour>
  </outline>
</glyph>
<glyph name="thaprehalfdeva" format="1">
  <advance width="828"/>
  <outline>
    <contour>
      <point x="618" y="1003" type="curve" smooth="yes"/>
      <point x="618" y="808"/>
      <point x="452" y="668"/>
      <point x="244" y="614" type="curve"/>
      <point x="251" y="677" type="line"/>
      <point x="328" y="528"/>
      <point x="486" y="439"/>
      <point x="618" y="439" type="curve" smooth="yes"/>
      <point x="769" y="439"/>
      <point x="884" y="506"/>
      <point x="996" y="641" type="curve"/>
      <point x="1043" y="578" type="line"/>
      <point x="924" y="432"/>
      <point x="791" y="361"/>
      <point x="623" y="361" type="curve" smooth="yes"/>
      <point x="455" y="361"/>
      <point x="279" y="462"/>
      <point x="166" y="663" type="curve"/>
      <point x="166" y="668" type="line"/>
      <point x="415" y="742"/>
      <point x="540" y="843"/>
      <point x="540" y="1012" type="curve" smooth="yes"/>
      <point x="540" y="1145"/>
      <point x="450" y="1222"/>
      <point x="348" y="1222" type="curve" smooth="yes"/>
      <point x="258" y="1222"/>
      <point x="202" y="1163"/>
      <point x="202" y="1077" type="curve" smooth="yes"/>
      <point x="202" y="993"/>
      <point x="287" y="878"/>
      <point x="542" y="878" type="curve"/>
      <point x="503" y="810" type="line"/>
      <point x="259" y="810"/>
      <point x="122" y="950"/>
      <point x="122" y="1089" type="curve" smooth="yes"/>
      <point x="122" y="1204"/>
      <point x="202" y="1304"/>
      <point x="342" y="1304" type="curve" smooth="yes"/>
      <point x="502" y="1304"/>
      <point x="618" y="1180"/>
    </contour>
  </outline>
</glyph>
<glyph name="ttaradeva" format="1">
  <advance width="1110"/>
  <outline>
    <component base="vattudeva" xOffset="904" yOffset="104"/>
    <component base="ttadeva"/>
    <contour>
      <point x="754" y="1274" type="move" name="top"/>
    </contour>
    <contour>
      <point x="582" y="-206" type="move" name="btm"/>
    </contour>
  </outline>
</glyph>
<glyph name="ttattadeva" format="1">
  <advance width="1110"/>
  <outline>
    <contour>
      <point x="714" y="372" type="line"/>
      <point x="803" y="372" type="line"/>
      <point x="803" y="79" type="line"/>
      <point x="605" y="79" type="line" smooth="yes"/>
      <point x="364" y="79"/>
      <point x="266" y="-22"/>
      <point x="266" y="-150" type="curve" smooth="yes"/>
      <point x="266" y="-278"/>
      <point x="398" y="-376"/>
      <point x="591" y="-376" type="curve" smooth="yes"/>
      <point x="704" y="-376"/>
      <point x="798" y="-358"/>
      <point x="905" y="-305" type="curve"/>
      <point x="929" y="-381" type="line"/>
      <point x="811" y="-436"/>
      <point x="718" y="-455"/>
      <point x="597" y="-455" type="curve" smooth="yes"/>
      <point x="342" y="-455"/>
      <point x="181" y="-323"/>
      <point x="181" y="-139" type="curve" smooth="yes"/>
      <point x="181" y="24"/>
      <point x="319" y="155"/>
      <point x="570" y="155" type="curve" smooth="yes"/>
      <point x="753" y="155" type="line"/>
      <point x="714" y="124" type="line"/>
    </contour>
    <contour>
      <point x="763" y="1238" type="line"/>
      <point x="852" y="1238" type="line"/>
      <point x="852" y="905" type="line"/>
      <point x="584" y="905" type="line" smooth="yes"/>
      <point x="333" y="905"/>
      <point x="225" y="794"/>
      <point x="225" y="641" type="curve" smooth="yes"/>
      <point x="225" y="498"/>
      <point x="357" y="390"/>
      <point x="590" y="390" type="curve" smooth="yes"/>
      <point x="713" y="390"/>
      <point x="815" y="410"/>
      <point x="924" y="461" type="curve"/>
      <point x="948" y="383" type="line"/>
      <point x="828" y="328"/>
      <point x="727" y="311"/>
      <point x="596" y="311" type="curve" smooth="yes"/>
      <point x="310" y="311"/>
      <point x="140" y="453"/>
      <point x="140" y="657" type="curve" smooth="yes"/>
      <point x="140" y="840"/>
      <point x="278" y="981"/>
      <point x="549" y="981" type="curve" smooth="yes"/>
      <point x="802" y="981" type="line"/>
      <point x="763" y="950" type="line"/>
    </contour>
    <contour>
      <point x="1140" y="1198" type="line"/>
      <point x="-30" y="1198" type="line"/>
      <point x="-30" y="1274" type="line"/>
      <point x="1140" y="1274" type="line"/>
    </contour>
    <contour>
      <point x="558.0" y="-455.0" type="move" name="btm"/>
    </contour>
    <contour>
      <point x="754.0" y="1274.0" type="move" name="top"/>
    </contour>
  </outline>
</glyph>
<glyph name="tthatthadeva" format="1">
  <advance width="1209"/>
  <outline>
    <contour>
      <point x="963" y="-151" type="curve" smooth="yes"/>
      <point x="963" y="-47"/>
      <point x="901" y="43"/>
      <point x="789" y="96" type="curve"/>
      <point x="599" y="96" type="line" smooth="yes"/>
      <point x="357" y="96"/>
      <point x="266" y="-9"/>
      <point x="266" y="-146" type="curve" smooth="yes"/>
      <point x="266" y="-277"/>
      <point x="397" y="-376"/>
      <point x="627" y="-376" type="curve" smooth="yes"/>
      <point x="843" y="-376"/>
      <point x="963" y="-288"/>
    </contour>
    <contour>
      <point x="764" y="379" type="line"/>
      <point x="853" y="379" type="line"/>
      <point x="853" y="122" type="line"/>
      <point x="826" y="170" type="line"/>
      <point x="971" y="91"/>
      <point x="1043" y="-15"/>
      <point x="1043" y="-157" type="curve" smooth="yes"/>
      <point x="1043" y="-333"/>
      <point x="895" y="-455"/>
      <point x="630" y="-455" type="curve" smooth="yes"/>
      <point x="345" y="-455"/>
      <point x="182" y="-324"/>
      <point x="182" y="-130" type="curve" smooth="yes"/>
      <point x="182" y="31"/>
      <point x="323" y="172"/>
      <point x="564" y="172" type="curve" smooth="yes"/>
      <point x="803" y="172" type="line"/>
      <point x="764" y="141" type="line"/>
    </contour>
    <contour>
      <point x="1011" y="649" type="curve" smooth="yes"/>
      <point x="1011" y="767"/>
      <point x="960" y="851"/>
      <point x="888" y="905" type="curve"/>
      <point x="589" y="905" type="line" smooth="yes"/>
      <point x="347" y="905"/>
      <point x="225" y="810"/>
      <point x="225" y="653" type="curve" smooth="yes"/>
      <point x="225" y="510"/>
      <point x="383" y="393"/>
      <point x="627" y="393" type="curve" smooth="yes"/>
      <point x="903" y="393"/>
      <point x="1011" y="518"/>
    </contour>
    <contour>
      <point x="1239" y="1198" type="line"/>
      <point x="-30" y="1198" type="line"/>
      <point x="-30" y="1274" type="line"/>
      <point x="1239" y="1274" type="line"/>
    </contour>
    <contour>
      <point x="863" y="1238" type="line"/>
      <point x="952" y="1238" type="line"/>
      <point x="952" y="931" type="line"/>
      <point x="924" y="983" type="line"/>
      <point x="1029" y="898"/>
      <point x="1091" y="786"/>
      <point x="1091" y="640" type="curve" smooth="yes"/>
      <point x="1091" y="466"/>
      <point x="955" y="313"/>
      <point x="630" y="313" type="curve" smooth="yes"/>
      <point x="335" y="313"/>
      <point x="139" y="469"/>
      <point x="139" y="669" type="curve" smooth="yes"/>
      <point x="139" y="850"/>
      <point x="293" y="981"/>
      <point x="544" y="981" type="curve" smooth="yes"/>
      <point x="902" y="981" type="line"/>
      <point x="863" y="950" type="line"/>
    </contour>
    <contour>
      <point x="558" y="-455" type="move" name="btm"/>
    </contour>
    <contour>
      <point x="843.0" y="1274.0" type="move" name="top"/>
    </contour>
  </outline>
</glyph>
<glyph name="vattudeva" format="1">
  <advance width="-1"/>
  <outline>
    <contour>
      <point x="-280" y="35" type="line"/>
      <point x="96" y="-250" type="line"/>
      <point x="47" y="-307" type="line"/>
      <point x="-334" y="-21" type="line"/>
      <point x="-262" y="-21" type="line"/>
      <point x="-639" y="-308" type="line"/>
      <point x="-691" y="-251" type="line"/>
      <point x="-317" y="35" type="line"/>
    </contour>
    <contour>
      <point x="-339" y="0" type="move" name="_btm"/>
    </contour>
  </outline>
</glyph>
<glyph name="vattullvocalicdeva" format="1">
  <advance width="0"/>
  <outline>
    <component base="vattulowdeva"/>
    <component base="llvocalicvowelsignlowdeva" xOffset="40" yOffset="-401"/>
    <contour>
      <point x="-339.0" y="0.0" type="move" name="_btm"/>
    </contour>
  </outline>
</glyph>
<glyph name="vattulowdeva" format="1">
  <advance width="-1"/>
  <outline>
    <contour>
      <point x="-280" y="35" type="line"/>
      <point x="106" y="-185" type="line"/>
      <point x="65" y="-248" type="line"/>
      <point x="-325" y="-27" type="line"/>
      <point x="-266" y="-27" type="line"/>
      <point x="-659" y="-252" type="line"/>
      <point x="-702" y="-186" type="line"/>
      <point x="-317" y="35" type="line"/>
    </contour>
    <contour>
      <point x="-339" y="0" type="move" name="_btm"/>
    </contour>
  </outline>
</glyph>
<glyph name="vatturvocalicdeva" format="1">
  <advance width="0"/>
  <outline>
    <component base="vattudeva" yOffset="-20"/>
    <component base="rvocalicvowelsigndeva" xOffset="90" yOffset="-370"/>
    <contour>
      <point x="-339" y="0" type="move" name="_btm"/>
    </contour>
  </outline>
</glyph>
<glyph name="vattuuudeva" format="1">
  <advance width="-1"/>
  <outline>
    <component base="uuvowelsignlowdeva" xOffset="-27" yOffset="-368"/>
    <component base="vattudeva" yOffset="-20"/>
    <contour>
      <point x="-339" y="0" type="move" name="_btm"/>
    </contour>
  </outline>
</glyph>
<glyph name="viramalowdeva" format="1">
  <advance width="-1"/>
  <outline>
    <contour>
      <point x="-361" y="-101" type="line"/>
      <point x="91" y="-289" type="line"/>
      <point x="65" y="-352" type="line"/>
      <point x="-388" y="-164" type="line"/>
    </contour>
    <contour>
      <point x="-339" y="0" type="move" name="_btm"/>
    </contour>
  </outline>
</glyph>
